<svg width="2700" height="2129" viewBox="0 0 2700 2129" fill="none" xmlns="http://www.w3.org/2000/svg">
<path d="M1522.96 922.859C1522.96 924.935 1522.96 927.011 1522.96 929.15C1525.25 929.941 1527.54 930.732 1529.9 931.546C1539.36 935.747 1545.68 940.57 1553.41 947.435C1557.02 950.579 1557.02 950.579 1560.71 953.788C1567.34 961.021 1570.22 967.072 1573.24 976.336C1575.32 976.336 1577.39 976.336 1579.53 976.336C1594.56 996.15 1603.66 1018.82 1610.95 1042.4C1611.67 1044.54 1612.38 1046.68 1613.12 1048.88C1628.53 1103.73 1614.7 1162.86 1588.49 1211.72C1571.95 1240.48 1549.19 1264.45 1522.96 1284.62C1524.75 1296.84 1530.35 1302.87 1538.68 1311.75C1541.23 1314.5 1543.78 1317.26 1546.41 1320.1C1550.36 1324.34 1550.36 1324.34 1554.39 1328.65C1559.25 1334.02 1564.09 1339.39 1568.92 1344.78C1571.28 1347.4 1573.64 1350.02 1576.07 1352.73C1589.14 1367.34 1601.98 1382.15 1614.78 1397C1616.61 1399.11 1618.43 1401.22 1620.31 1403.39C1623.97 1407.64 1627.63 1411.88 1631.29 1416.13C1632.99 1418.1 1634.69 1420.07 1636.44 1422.1C1637.96 1423.87 1639.48 1425.64 1641.05 1427.46C1645.52 1432.6 1645.52 1432.6 1650.8 1437.45C1654.95 1441.9 1654.95 1441.9 1655 1447.97C1650.37 1457.42 1643.85 1461.39 1635.31 1467.46C1631.84 1469.97 1628.37 1472.48 1624.9 1474.99C1623.11 1476.28 1621.31 1477.57 1619.46 1478.89C1610.98 1485.06 1602.73 1491.5 1594.46 1497.93C1570.82 1516.22 1546.89 1534.1 1522.96 1552C1513.39 1547.81 1507.73 1543.56 1501.22 1535.41C1499.56 1533.35 1497.91 1531.3 1496.2 1529.18C1494.47 1526.98 1492.73 1524.78 1490.95 1522.51C1488.24 1519.12 1488.24 1519.12 1485.47 1515.66C1472.55 1499.41 1460.02 1482.91 1447.69 1466.22C1441.46 1457.9 1435.03 1449.78 1428.49 1441.7C1420.09 1431.3 1412.1 1420.73 1404.33 1409.85C1392.52 1393.4 1379.94 1377.66 1367.22 1361.91C1355.5 1347.33 1344.35 1332.48 1333.52 1317.23C1329.58 1311.8 1325.43 1306.52 1321.15 1301.35C1315.55 1294.05 1315.55 1294.05 1315.55 1287.76C1313.48 1287.76 1311.4 1287.76 1309.27 1287.76C1306.16 1281.53 1303.05 1275.3 1299.84 1268.89C1305.02 1266.54 1305.02 1266.54 1310.31 1264.16C1359.44 1241.69 1420.7 1212.99 1441.26 1158.79C1451.74 1127.58 1452 1090.17 1437.74 1060.18C1423.03 1035.25 1401.48 1022.87 1374.28 1014.48C1355.74 1010.48 1337.8 1010.53 1318.95 1010.72C1315.9 1010.73 1312.85 1010.75 1309.7 1010.77C1302.22 1010.81 1294.75 1010.87 1287.27 1010.94C1287.61 1070.31 1287.96 1129.68 1288.34 1189.04C1288.51 1216.61 1288.68 1244.19 1288.83 1271.76C1288.97 1295.81 1289.11 1319.87 1289.27 1343.92C1289.35 1356.63 1289.43 1369.35 1289.5 1382.07C1289.56 1394.08 1289.64 1406.09 1289.72 1418.11C1289.76 1424.52 1289.79 1430.94 1289.82 1437.36C1290.05 1467.37 1291.79 1496.77 1293.55 1526.83C1231.33 1526.83 1169.11 1526.83 1105 1526.83C1106.04 1504 1107.07 1481.16 1108.14 1457.63C1108.39 1437.96 1108.55 1418.32 1108.5 1398.66C1108.5 1393.16 1108.5 1387.67 1108.5 1382.17C1108.5 1367.51 1108.48 1352.84 1108.46 1338.18C1108.44 1322.76 1108.44 1307.34 1108.44 1291.92C1108.43 1262.83 1108.4 1233.75 1108.37 1204.66C1108.33 1171.5 1108.32 1138.34 1108.3 1105.17C1108.27 1037.06 1108.21 968.951 1108.14 900.839C1233.55 858.268 1407.31 848.842 1522.96 922.859Z" fill="#A9370A"/>
<path d="M1928.63 369.575C1965.42 368.396 1965.42 368.396 1982.12 375.866C1985.26 379.012 1985.26 379.012 1985.64 386.318C1985.52 408.474 1984.68 430.464 1983.2 452.568C1982.76 459.538 1982.33 466.507 1981.91 473.477C1981.68 477.114 1981.46 480.751 1981.23 484.498C1975.35 581.582 1974.75 678.138 1975.82 775.377C1980.85 774.98 1985.87 774.552 1990.89 774.112C1993.69 773.877 1996.49 773.642 1999.37 773.4C2011.17 771.659 2017.46 767.73 2026.17 759.649C2038.43 737.902 2045.12 715.234 2051.63 691.228C2054.12 683.041 2056.47 675.818 2060.78 668.422C2071.87 664.367 2071.87 664.367 2082.81 662.13C2089.2 654.311 2089.2 654.311 2093.23 644.828C2101.41 627.806 2101.41 627.806 2107.98 621.235C2111.09 621.235 2114.21 621.235 2117.42 621.235C2119.97 651.321 2111.36 678.35 2102.74 706.773C2092.84 739.479 2086.51 769.392 2085.95 803.689C2101.76 800.384 2114.14 797.014 2123.32 783.045C2129.97 770.77 2133.45 757.999 2137.08 744.583C2140.14 735.578 2144.3 730.531 2152.03 725.045C2154.11 725.045 2156.18 725.045 2158.32 725.045C2159.1 722.32 2159.88 719.595 2160.68 716.788C2167.38 698.717 2176.66 685.29 2192.93 674.713C2197.09 674.713 2201.24 674.713 2205.52 674.713C2204.42 703.91 2189.71 725.549 2173.66 749.228C2156.64 774.358 2147.81 799.684 2139.44 828.855C2143.53 826.536 2147.59 824.167 2151.64 821.777C2155.03 819.807 2155.03 819.807 2158.49 817.796C2165.27 812.625 2167.73 808.359 2170.91 800.543C2172.99 800.543 2175.06 800.543 2177.2 800.543C2177.81 798.646 2178.42 796.748 2179.05 794.793C2179.86 792.278 2180.68 789.764 2181.53 787.174C2182.33 784.692 2183.13 782.211 2183.96 779.654C2186.49 772.652 2189.46 766.225 2192.93 759.649C2195.01 759.649 2197.09 759.649 2199.23 759.649C2200.05 757.811 2200.88 755.973 2201.73 754.079C2208.39 741.759 2218.57 732.598 2228.33 722.686C2230.4 720.492 2232.46 718.298 2234.59 716.038C2250.17 700.21 2250.17 700.21 2263.68 698.454C2266.29 698.924 2268.91 699.395 2271.6 699.879C2269.91 716.704 2263.83 729.317 2255.86 743.92C2253.79 743.92 2251.71 743.92 2249.57 743.92C2248.91 746.049 2248.24 748.178 2247.56 750.371C2241.88 762.671 2233.85 771.93 2225.19 782.259C2205.56 806.265 2187.06 829.438 2180.35 860.313C2215.46 859.181 2237.84 842.506 2261.64 817.661C2270.78 807.354 2279.29 796.636 2287.58 785.638C2297.63 773.814 2306.93 765.209 2322.53 762.794C2334.66 761.067 2334.66 761.067 2338.66 753.161C2339.73 750.144 2339.73 750.144 2340.82 747.066C2343.94 746.028 2347.05 744.989 2350.26 743.92C2351.3 740.806 2352.34 737.691 2353.41 734.483C2355.48 734.483 2357.56 734.483 2359.7 734.483C2359.7 732.406 2359.7 730.33 2359.7 728.191C2372.83 720.687 2382.25 716.726 2397.46 718.754C2403.36 722.096 2403.36 722.096 2406.9 728.191C2407.49 739.791 2407.49 739.791 2406.9 750.211C2404.82 750.211 2402.74 750.211 2400.6 750.211C2399.88 752.032 2399.15 753.853 2398.4 755.729C2393.28 764.568 2387.3 769.027 2379.17 775.181C2367.64 784.122 2357.31 793.242 2347.11 803.689C2317.39 831.42 2286.19 856.171 2252.72 879.187C2245.36 884.402 2238.02 889.658 2230.69 894.916C2231.47 910.813 2236.65 920.369 2247.3 931.719C2252.93 936.733 2252.93 936.733 2262.75 936.598C2275.76 933.211 2287.77 926.864 2299.87 921.115C2312.9 915.374 2326.22 911.377 2339.89 907.401C2346.58 905.435 2353.24 903.346 2359.85 901.109C2398.7 888.097 2444.36 878.006 2485.56 882.333C2487.64 883.371 2489.71 884.409 2491.85 885.479C2493.16 891.979 2493.16 891.979 2493.82 899.831C2494.17 903.73 2494.17 903.73 2494.53 907.708C2494.69 909.715 2494.84 911.723 2495 913.791C2492.92 913.791 2490.85 913.791 2488.71 913.791C2487.95 916.723 2487.95 916.723 2487.18 919.714C2480.87 928.535 2474.62 929.089 2464.28 930.994C2460.41 931.627 2460.41 931.627 2456.46 932.272C2450.76 933.31 2445.07 934.35 2439.38 935.393C2436.24 935.952 2433.09 936.51 2429.85 937.086C2412.22 940.268 2394.64 943.708 2377.07 947.184C2371.07 948.362 2365.07 949.508 2359.06 950.654C2336.55 955.065 2314.86 960.558 2293.06 967.686C2284.88 970.2 2276.86 972.05 2268.45 973.56C2269.49 975.636 2270.53 977.713 2271.6 979.852C2285.53 980.781 2296.02 979.377 2309.36 975.133C2331.38 968.591 2352.65 969.585 2375.43 970.414C2385.14 992.666 2382.88 1010.99 2375.43 1033.33C2364.54 1035.74 2354.16 1037.01 2343.02 1037.47C2338.41 1037.67 2338.41 1037.67 2333.71 1037.87C2330.54 1037.99 2327.37 1038.12 2324.1 1038.24C2320.87 1038.38 2317.64 1038.52 2314.31 1038.66C2306.37 1038.99 2298.42 1039.31 2290.48 1039.62C2290.48 1041.7 2290.48 1043.77 2290.48 1045.91C2288.4 1045.91 2286.32 1045.91 2284.18 1045.91C2283.14 1051.1 2282.11 1056.29 2281.04 1061.64C2297.89 1064.46 2314.11 1065.27 2331.18 1065.18C2333.58 1065.19 2335.97 1065.2 2338.43 1065.22C2349.91 1065.2 2361.05 1064.77 2372.43 1063.21C2385.44 1061.57 2397.95 1061.17 2411.03 1061.25C2414.34 1061.23 2414.34 1061.23 2417.72 1061.21C2427.55 1061.23 2435.26 1061.66 2444.66 1064.79C2444.66 1078.28 2444.66 1091.78 2444.66 1105.68C2393.78 1106.72 2342.9 1107.76 2290.48 1108.83C2293.59 1116.61 2293.59 1116.61 2296.77 1124.56C2305.89 1127.13 2313.6 1128.5 2322.92 1129.47C2325.64 1129.82 2328.35 1130.17 2331.14 1130.53C2340.65 1131.75 2350.17 1132.87 2359.7 1133.99C2371.64 1135.46 2383.58 1136.96 2395.52 1138.51C2403.5 1139.55 2411.48 1140.54 2419.48 1141.48C2444.89 1144.75 2463.48 1149.6 2484.18 1165.25C2488.71 1171.74 2488.71 1171.74 2487.92 1180.39C2487.14 1182.73 2486.36 1185.07 2485.56 1187.47C2444.42 1203.93 2394.91 1186.13 2354.32 1173.99C2329.78 1166.77 2306.55 1164.97 2281.04 1165.25C2278.6 1165.27 2276.16 1165.28 2273.65 1165.3C2267.72 1165.33 2261.79 1165.39 2255.86 1165.45C2258.85 1180.62 2258.85 1180.62 2267.81 1192.59C2274.82 1196.96 2281.09 1199.59 2288.94 1202.09C2291.58 1202.99 2294.22 1203.88 2296.95 1204.8C2302.49 1206.63 2308.05 1208.42 2313.61 1210.18C2320.97 1212.7 2327.76 1215.09 2334.53 1218.93C2337.93 1227.51 2337.93 1227.51 2337.67 1234.66C2339.69 1234.92 2341.7 1235.18 2343.77 1235.44C2365.58 1240.78 2384.87 1249.98 2400.6 1266.12C2400.6 1270.27 2400.6 1274.42 2400.6 1278.7C2384.44 1276.71 2371 1269.43 2356.55 1262.38C2351.16 1259.8 2345.76 1257.22 2340.37 1254.64C2331.49 1250.36 2322.65 1246.02 2313.84 1241.61C2287.89 1228.92 2261.93 1221.91 2233.84 1215.78C2237.57 1233.08 2237.57 1233.08 2249.96 1245.08C2254.44 1247.71 2254.44 1247.71 2259.01 1250.39C2259.01 1252.46 2259.01 1254.54 2259.01 1256.68C2261.23 1257.49 2263.45 1258.3 2265.73 1259.14C2275.51 1263.3 2284.06 1268.31 2293.03 1273.98C2296.1 1275.89 2299.17 1277.81 2302.34 1279.78C2304.65 1281.5 2306.97 1283.22 2309.36 1284.99C2309.36 1287.07 2309.36 1289.14 2309.36 1291.28C2311.95 1291.93 2314.55 1292.58 2317.22 1293.25C2329.05 1297.89 2336.91 1303.85 2346.79 1311.63C2356.78 1318.91 2367.39 1323.84 2378.58 1329.03C2378.58 1331.11 2378.58 1333.18 2378.58 1335.32C2381.26 1336.64 2381.26 1336.64 2384.01 1337.98C2396.61 1344.37 2408.8 1351.5 2421.06 1358.52C2423.75 1360.04 2426.44 1361.56 2429.21 1363.12C2456.4 1378.73 2456.4 1378.73 2463.53 1388.8C2463.33 1400.11 2456.45 1407.38 2449.57 1415.93C2447.63 1418.37 2445.69 1420.81 2443.68 1423.33C2438.36 1429.7 2438.36 1429.7 2432.07 1435.99C2376.69 1398.5 2376.69 1398.5 2359.7 1382.51C2359.7 1380.43 2359.7 1378.36 2359.7 1376.22C2357.42 1375.41 2355.13 1374.6 2352.78 1373.76C2343.59 1369.76 2336.7 1365.08 2328.82 1358.92C2326.34 1357 2323.85 1355.09 2321.29 1353.12C2319.43 1351.4 2317.57 1349.68 2315.65 1347.91C2315.65 1345.83 2315.65 1343.75 2315.65 1341.61C2313.38 1340.84 2311.11 1340.06 2308.77 1339.25C2299.92 1335.32 2299.92 1335.32 2293.23 1329.82C2282.18 1321.17 2270.44 1314.98 2258.05 1308.44C2251.3 1304.8 2244.98 1300.94 2238.56 1296.79C2223.81 1289.41 2209.17 1287.22 2192.93 1284.99C2196.61 1307.83 2205.12 1319.14 2221.25 1335.32C2222.69 1336.77 2224.13 1338.21 2225.62 1339.7C2232.1 1346.2 2238.6 1352.68 2245.12 1359.13C2255.88 1369.82 2266.17 1380.75 2276 1392.31C2279.68 1396.65 2283.45 1400.92 2287.26 1405.14C2289.29 1407.41 2291.33 1409.67 2293.43 1412C2296.19 1415.05 2296.19 1415.05 2299.02 1418.17C2303.06 1423.4 2303.06 1423.4 2303.06 1429.7C2306.18 1430.73 2309.29 1431.77 2312.5 1432.84C2316.89 1437.72 2321.06 1442.8 2325.09 1447.98C2333.19 1458.23 2341.27 1468.09 2350.37 1477.47C2351.95 1479.11 2353.54 1480.76 2355.17 1482.45C2358.26 1485.63 2361.39 1488.77 2364.56 1491.86C2372.21 1499.78 2375.32 1504.32 2376.8 1515.36C2375.43 1524.07 2375.43 1524.07 2369.14 1530.36C2357.81 1531.87 2352.03 1531.44 2342.2 1525.44C2334.56 1517.81 2328.79 1510.07 2322.72 1501.2C2314.54 1489.85 2304.31 1481.07 2293.62 1472.16C2280.84 1461.51 2269.66 1450.1 2259.01 1437.36C2251.37 1428.29 2243.14 1421.36 2233.84 1413.97C2228.53 1407.73 2223.29 1401.44 2218.11 1395.09C2214.41 1391.49 2214.41 1391.49 2210.63 1387.82C2203.45 1380.47 2197.93 1373.3 2191.95 1365.01C2181.27 1350.9 2171.47 1345.04 2155.18 1338.47C2165.83 1364.66 2178.63 1391.1 2196.77 1412.93C2202.37 1420.26 2202.37 1420.26 2202.37 1429.7C2204.45 1429.7 2206.53 1429.7 2208.67 1429.7C2209.71 1433.85 2210.74 1438 2211.81 1442.28C2213.89 1442.28 2215.97 1442.28 2218.11 1442.28C2221.85 1447.52 2221.85 1447.52 2225.96 1454.8C2227.46 1457.43 2228.96 1460.05 2230.5 1462.76C2232.06 1465.54 2233.61 1468.32 2235.22 1471.18C2238.29 1476.6 2241.37 1482.02 2244.45 1487.44C2245.88 1489.99 2247.32 1492.54 2248.8 1495.17C2251.93 1500.66 2255.21 1506.07 2258.53 1511.45C2262.16 1517.78 2262.16 1517.78 2262.16 1524.07C2265.27 1525.11 2268.39 1526.14 2271.6 1527.21C2275.05 1532.23 2275.05 1532.23 2278.09 1538.22C2282.37 1547.13 2282.37 1547.13 2290.48 1552.38C2293.13 1556.67 2295.6 1561.09 2297.95 1565.55C2302.77 1574.53 2307.67 1583.14 2313.49 1591.51C2318.79 1599.57 2318.79 1599.57 2318.79 1605.86C2320.87 1605.86 2322.95 1605.86 2325.09 1605.86C2330.08 1612.08 2330.08 1612.08 2335.71 1620.41C2337.65 1623.27 2339.6 1626.14 2341.61 1629.09C2343.42 1631.81 2345.24 1634.52 2347.11 1637.32C2348.48 1639.28 2349.84 1641.25 2351.24 1643.28C2362.65 1659.84 2363.17 1671.28 2362.85 1690.79C2354.59 1692.37 2354.59 1692.37 2343.97 1690.79C2336.33 1683.26 2330.37 1674.95 2325.09 1665.63C2325.09 1663.55 2325.09 1661.47 2325.09 1659.34C2323.31 1658.57 2321.53 1657.8 2319.69 1657.01C2298.34 1645.23 2282.11 1625.74 2274.74 1602.71C2273.71 1599.6 2272.67 1596.48 2271.6 1593.27C2269.59 1592.95 2267.57 1592.63 2265.5 1592.29C2263.36 1591.58 2261.22 1590.86 2259.01 1590.13C2258.11 1587.23 2257.21 1584.34 2256.28 1581.36C2252.31 1570.11 2248.44 1566.18 2239.54 1558.47C2224.77 1544.49 2216.58 1529.66 2207.54 1511.6C2200.92 1499.37 2192.82 1490.26 2183.49 1480.03C2183.49 1477.95 2183.49 1475.88 2183.49 1473.74C2181.42 1473.74 2179.34 1473.74 2177.2 1473.74C2172.21 1467.99 2172.21 1467.99 2166.58 1460.37C2160.76 1452.52 2155.18 1445.43 2148.17 1438.59C2142.59 1432.84 2142.59 1432.84 2142.59 1426.55C2139.47 1425.51 2136.36 1424.47 2133.15 1423.4C2117.42 1406.21 2117.42 1406.21 2117.42 1398.24C2113.26 1397.2 2109.11 1396.16 2104.83 1395.09C2106.07 1419.89 2113.48 1438.69 2123.71 1461.15C2125.9 1466.03 2128.09 1470.91 2130.27 1475.79C2135.13 1486.6 2140 1497.41 2144.89 1508.2C2152.89 1525.93 2160.67 1543.76 2168.39 1561.61C2176.29 1579.63 2184.66 1597.44 2192.93 1615.3C2196.24 1622.46 2199.54 1629.62 2202.84 1636.79C2206.22 1644.11 2209.61 1651.43 2212.99 1658.75C2213.87 1660.65 2214.75 1662.55 2215.66 1664.52C2227.38 1689.82 2239.29 1714.99 2252.14 1739.73C2259.01 1753.08 2259.01 1753.08 2259.01 1760C2232.67 1749.27 2217.26 1722.33 2206.63 1697.36C2203.75 1690.33 2200.89 1683.29 2198.05 1676.24C2179.44 1622.96 2179.44 1622.96 2142.59 1583.84C2134.13 1569.56 2128.62 1554.96 2122.92 1539.4C2116.48 1522.18 2108.31 1507.06 2098.82 1491.34C2088.71 1474.1 2081.67 1456.03 2075.01 1437.22C2064.48 1407.73 2064.48 1407.73 2042.49 1387.23C2040.22 1386.71 2037.95 1386.19 2035.61 1385.65C2021.83 1409.13 2029.78 1442.82 2032.26 1468.82C2032.84 1475.14 2033.42 1481.47 2034 1487.79C2034.28 1490.79 2034.55 1493.78 2034.84 1496.86C2035.81 1507.43 2036.71 1518.01 2037.57 1528.59C2037.97 1533.37 2038.36 1538.16 2038.75 1542.94C2028.92 1543.03 2019.09 1543.09 2009.26 1543.14C2006.46 1543.17 2003.66 1543.19 2000.78 1543.22C1996.76 1543.23 1996.76 1543.23 1992.66 1543.25C1988.96 1543.27 1988.96 1543.27 1985.17 1543.3C1978.97 1542.94 1978.97 1542.94 1972.68 1539.8C1969.39 1528.28 1969.3 1517.54 1969.67 1505.64C1969.73 1502.12 1969.8 1498.61 1969.87 1494.99C1970.04 1487.69 1970.24 1480.38 1970.48 1473.07C1970.83 1450.96 1969.35 1432.81 1956.95 1413.97C1951.02 1408.08 1944.71 1403.36 1938.07 1398.24C1925.48 1381.35 1925.48 1381.35 1925.48 1373.07C1923.4 1373.07 1921.33 1373.07 1919.19 1373.07C1918.15 1368.92 1917.11 1364.77 1916.04 1360.49C1913.96 1360.49 1911.89 1360.49 1909.75 1360.49C1910.79 1357.37 1911.82 1354.26 1912.89 1351.05C1915.59 1350.99 1918.28 1350.93 1921.06 1350.86C1931.21 1350.61 1941.35 1350.34 1951.5 1350.05C1955.86 1349.93 1960.22 1349.82 1964.59 1349.72C1995.83 1349 2026.32 1348.07 2055.27 1335.13C2066.56 1330.34 2076.8 1327.18 2089.1 1325.89C2089.1 1323.81 2089.1 1321.73 2089.1 1319.59C2095.32 1315.51 2095.32 1315.51 2103.65 1310.94C2118.03 1302.68 2128.08 1293.78 2139.44 1281.84C2141.52 1281.84 2143.6 1281.84 2145.74 1281.84C2146.6 1279.96 2147.47 1278.07 2148.37 1276.13C2152.03 1269.26 2152.03 1269.26 2160.29 1260.02C2217.28 1194.69 2228.15 1113.38 2224.4 1030.18C2222.72 1012.01 2219.26 994.425 2214.96 976.706C2214.21 973.584 2213.45 970.461 2212.67 967.244C2204.75 938.1 2191.07 919.056 2167.76 899.635C2158.32 891.77 2158.32 891.77 2150.46 883.709C2142.12 875.586 2133.47 869.761 2123.71 863.459C2121.24 861.382 2118.78 859.306 2116.24 857.167C2063.18 816.751 1989.77 811.238 1925.68 810.767C1919.7 810.684 1913.72 810.597 1907.74 810.505C1893.19 810.298 1878.65 810.162 1864.1 810.05C1856.94 809.987 1849.78 809.896 1842.62 809.786C1803.77 809.192 1765.92 809.364 1727.45 815.203C1717.81 816.272 1717.81 816.272 1708.37 813.127C1708.3 809.872 1708.3 809.872 1708.23 806.552C1707.22 786.477 1703.66 772.784 1692.82 755.802C1689.49 750.211 1689.49 750.211 1689.49 743.92C1687.41 743.92 1685.34 743.92 1683.2 743.92C1636 647.061 1636 647.061 1636 624.381C1642.23 624.381 1648.46 624.381 1654.88 624.381C1666.42 644.526 1677.88 664.717 1689.29 684.937C1691.21 688.299 1693.12 691.66 1695.09 695.124C1706.96 716.204 1717.56 737.485 1727.25 759.649C1729.67 764.961 1732.09 770.27 1734.53 775.574C1739.84 787.177 1739.84 787.177 1739.84 794.252C1741.91 794.252 1743.99 794.252 1746.13 794.252C1752.04 766.78 1745.35 746.043 1735.9 720.13C1734.62 716.458 1733.33 712.786 1732.01 709.003C1729.5 701.848 1726.97 694.701 1724.41 687.564C1721.44 679.223 1718.59 670.86 1715.83 662.45C1711.92 650.6 1707.56 638.97 1703.06 627.33C1693.14 601.347 1684.41 574.984 1675.73 548.563C1674.71 545.432 1673.68 542.302 1672.62 539.077C1671.7 536.267 1670.78 533.458 1669.83 530.563C1667.62 523.689 1667.62 523.689 1664.32 517.425C1663.94 512.192 1663.77 506.943 1663.73 501.696C1663.66 497.512 1663.66 497.512 1663.59 493.242C1664.32 485.968 1664.32 485.968 1670.61 479.676C1678.62 480.21 1682.87 482.583 1689.36 487.27C1699 499.47 1701.15 512.685 1704.63 527.649C1706.26 534.225 1707.89 540.799 1709.54 547.371C1710.8 552.442 1710.8 552.442 1712.08 557.615C1722.93 600.211 1736.08 642.229 1749.86 683.954C1750.87 687.025 1751.88 690.097 1752.92 693.261C1760.63 716.207 1769.83 738.052 1780.74 759.649C1788.34 760.174 1788.34 760.174 1796.47 759.649C1803.59 753.857 1803.59 753.857 1803.6 745.124C1803.5 723.961 1801.8 704.142 1797.87 683.352C1796.01 671.886 1796.03 661.134 1796.47 649.547C1812.32 642.991 1823.18 639.513 1840.52 640.11C1848.02 704.698 1848.02 704.698 1846.82 734.483C1849.93 734.483 1853.05 734.483 1856.26 734.483C1858.95 722.823 1859.81 712.032 1859.82 700.076C1859.82 696.479 1859.83 692.882 1859.83 689.176C1859.82 685.442 1859.81 681.707 1859.8 677.859C1859.81 674.222 1859.82 670.584 1859.83 666.836C1859.81 649.013 1859.36 631.403 1857.84 613.641C1855.89 590.605 1855.68 567.666 1855.67 544.557C1855.63 540.425 1855.59 536.293 1855.55 532.036C1855.54 528.033 1855.54 524.031 1855.53 519.907C1855.52 516.329 1855.51 512.751 1855.49 509.065C1856.35 497.292 1858.96 487.74 1862.55 476.53C1876.05 476.53 1889.55 476.53 1903.45 476.53C1908.93 512.802 1910.6 548.116 1910.36 584.764C1910.35 590.123 1910.34 595.482 1910.33 600.84C1910.31 614.762 1910.25 628.683 1910.18 642.604C1910.11 656.883 1910.09 671.162 1910.05 685.441C1909.99 713.323 1909.88 741.204 1909.75 769.086C1912.86 769.086 1915.98 769.086 1919.19 769.086C1930.01 727.032 1929.87 685.651 1929.51 642.457C1929.41 630.697 1929.38 618.938 1929.36 607.178C1929.25 572.632 1928.71 538.321 1926.18 503.864C1924.97 483.796 1925.01 463.728 1925.07 443.63C1925.09 436.502 1925.07 429.375 1925.05 422.248C1925.05 417.654 1925.06 413.06 1925.06 408.466C1925.07 404.388 1925.07 400.31 1925.07 396.108C1925.42 386.82 1926.45 378.583 1928.63 369.575Z" fill="#AA3800"/>
<path d="M1696 882C1827.81 882 1959.62 882 2095.42 882C2108 995.268 2108 995.268 2108 1033.02C2033.27 1033.02 1958.55 1033.02 1881.56 1033.02C1881.56 1069.36 1881.56 1105.7 1881.56 1143.15C1951.09 1143.15 2020.63 1143.15 2092.27 1143.15C2092.27 1190.91 2092.27 1238.67 2092.27 1287.88C2022.74 1287.88 1953.2 1287.88 1881.56 1287.88C1882.6 1366.79 1883.63 1445.7 1884.7 1527C1822.43 1527 1760.16 1527 1696 1527C1697.04 1504.16 1698.08 1481.32 1699.15 1457.78C1699.41 1439.45 1699.58 1421.15 1699.55 1402.83C1699.56 1397.76 1699.56 1392.69 1699.57 1387.62C1699.58 1374.1 1699.58 1360.58 1699.57 1347.06C1699.56 1332.77 1699.57 1318.49 1699.57 1304.2C1699.58 1280.25 1699.57 1256.3 1699.56 1232.35C1699.54 1204.8 1699.54 1177.26 1699.56 1149.71C1699.58 1125.88 1699.58 1102.05 1699.57 1078.22C1699.56 1064.06 1699.56 1049.91 1699.57 1035.75C1699.58 1022.45 1699.58 1009.15 1699.56 995.844C1699.55 991.011 1699.56 986.178 1699.56 981.345C1699.57 979.092 1699.57 976.84 1699.57 974.519C1699.58 972.581 1699.58 970.642 1699.58 968.645C1699.43 939.485 1697.72 911.293 1696 882Z" fill="#AA3800"/>
<path d="M208.148 882C270.469 882 332.79 882 397 882C395.961 899.651 394.923 917.302 393.852 935.488C393.614 944.693 393.455 953.902 393.453 963.11C393.448 965.436 393.443 967.762 393.438 970.158C393.426 977.709 393.435 985.259 393.445 992.81C393.441 998.321 393.435 1003.83 393.428 1009.34C393.414 1024.13 393.42 1038.92 393.43 1053.7C393.438 1069.26 393.43 1084.81 393.425 1100.36C393.42 1126.44 393.427 1152.51 393.442 1178.59C393.459 1208.68 393.454 1238.77 393.436 1268.87C393.422 1294.8 393.42 1320.74 393.428 1346.68C393.433 1362.12 393.434 1377.57 393.423 1393.02C393.414 1407.53 393.421 1422.03 393.439 1436.53C393.443 1441.84 393.442 1447.14 393.435 1452.45C393.426 1459.72 393.437 1466.99 393.453 1474.26C393.454 1478.31 393.455 1482.37 393.456 1486.55C393.898 1500.08 395.505 1513.55 397 1527C333.64 1527 270.28 1527 205 1527C206.039 1512.46 207.077 1497.93 208.148 1482.95C208.393 1473.55 208.565 1464.23 208.526 1454.84C208.529 1452.35 208.531 1449.86 208.534 1447.29C208.539 1439.12 208.522 1430.95 208.505 1422.79C208.504 1416.86 208.504 1410.93 208.506 1405C208.507 1389.05 208.489 1373.09 208.467 1357.14C208.447 1340.41 208.445 1323.69 208.441 1306.96C208.432 1275.35 208.406 1243.74 208.374 1212.13C208.339 1176.11 208.322 1140.1 208.306 1104.08C208.273 1030.06 208.215 956.028 208.148 882Z" fill="#A9370A"/>
<path d="M570.798 880.475C643.022 868.703 721.899 866.263 793.601 882.629C797.063 883.363 797.063 883.364 800.595 884.112C877.077 900.691 943.302 944.219 988.772 1008.06C1015.23 1051.2 1029.51 1097.35 1038.88 1146.68C1039.7 1150.4 1039.7 1150.4 1040.54 1154.18C1055.49 1237.05 1031.78 1328.89 985.419 1398.17C979.012 1406.67 972.437 1414.96 965.605 1423.13C959.835 1429.89 959.836 1429.89 953.974 1439.03H947.685V1445.32C875.415 1514.79 775.898 1531.7 679.414 1530.98C676.987 1530.97 674.559 1530.95 672.059 1530.94C603.638 1530.55 544.812 1519.28 476 1505.04V901.49C504.851 893.799 532.248 886.668 561.493 882.04C564.564 881.523 567.634 881.007 570.798 880.475ZM658 1379H724.085C765.876 1370.66 801.391 1355.42 830.968 1324.15C863.93 1283.32 872.579 1229.22 869.381 1178.27C866.045 1138.38 849.041 1090.11 817.766 1063.14C815.872 1061.67 814.035 1060.24 812.197 1058.81C767.584 1020.65 714.932 1018 658 1018V1379Z" fill="#A9370A"/>
</svg>
