<svg width="2700" height="2129" viewBox="0 0 2700 2129" fill="none" xmlns="http://www.w3.org/2000/svg">
<path d="M460.231 609.91C460.231 616.354 458.814 616.942 454.379 621.403C444.818 631.762 438.219 643.698 431.287 655.881C430.423 657.372 430.423 657.372 429.542 658.892C411.967 689.287 397.05 721.859 388.068 755.838C386.903 760.17 385.664 764.478 384.418 768.788C378.816 788.363 374.487 807.689 371.694 827.848C371.535 828.993 371.376 830.139 371.211 831.319C368.525 851.252 367.755 870.936 367.845 891.038C367.863 895.837 367.845 900.635 367.823 905.434C367.8 932.932 369.892 959.877 375.525 986.832C375.897 988.626 376.269 990.421 376.652 992.27C397.104 1088.42 448.788 1177.24 526.634 1238.18C528.217 1239.52 529.799 1240.87 531.43 1242.25C558.756 1265.11 590.248 1283.52 621.982 1299.48C623.151 1300.07 624.321 1300.66 625.525 1301.27C658.625 1317.91 692.932 1328.15 729.248 1335.23C731.586 1335.7 731.586 1335.7 733.971 1336.17C783.448 1345.39 839.827 1344.03 889.296 1335.23C891.03 1334.94 892.763 1334.65 894.55 1334.35C918.729 1330.21 941.916 1324.24 965.101 1316.25C969.039 1314.9 972.99 1313.6 976.949 1312.31C1018.21 1298.64 1057.43 1277.25 1092 1251.05C1100.06 1244.99 1100.06 1244.99 1103.83 1244.99C1103.83 1243.87 1103.83 1242.75 1103.83 1241.59C1106.89 1238.88 1106.89 1238.88 1111.17 1235.63C1125.96 1224.06 1139.45 1211.72 1151.5 1197.32C1153.63 1194.94 1155.76 1192.57 1157.89 1190.19C1162.07 1185.44 1165.29 1180.63 1168.53 1175.19C1169.65 1175.19 1170.78 1175.19 1171.93 1175.19C1172.36 1174.25 1172.79 1173.32 1173.22 1172.36C1175.75 1167.61 1178.78 1163.47 1181.94 1159.12C1189.07 1149.04 1195.37 1138.54 1201.52 1127.83C1202.82 1125.58 1202.82 1125.58 1204.16 1123.28C1209.06 1114.64 1212.91 1106.23 1216.2 1096.86C1217.45 1094.12 1218.72 1091.38 1220.03 1088.67C1238.36 1048.49 1247.96 1006.01 1253.66 962.356C1253.86 960.826 1254.06 959.296 1254.27 957.719C1257.12 934.94 1257.37 912.171 1257.39 889.249C1257.39 887.113 1257.39 887.113 1257.39 884.935C1257.39 880.824 1257.37 876.713 1257.35 872.602C1257.35 871.381 1257.35 870.161 1257.35 868.903C1257.27 860.766 1256.46 852.938 1255.36 844.874C1255.26 842.038 1255.21 839.199 1255.26 836.361C1255.27 835.062 1255.29 833.762 1255.3 832.424C1255.32 831.475 1255.34 830.527 1255.36 829.55C1259.14 833.324 1260.17 835.951 1262.03 840.91C1262.65 842.551 1263.27 844.192 1263.91 845.882C1264.57 847.657 1265.22 849.431 1265.9 851.259C1266.58 853.085 1267.26 854.911 1267.95 856.792C1274.56 874.775 1280.51 892.928 1286.01 911.277C1286.95 914.355 1286.95 914.355 1287.9 917.496C1289.72 923.899 1291.33 930.33 1292.82 936.817C1293.41 939.367 1293.41 939.367 1294.01 941.969C1326.09 1083.86 1299.48 1225.47 1223.99 1349.55C1221.51 1353.64 1219.07 1357.75 1216.64 1361.88C1211.25 1371.02 1205.95 1379.82 1199.18 1388.02C1197.71 1389.96 1196.26 1391.91 1194.81 1393.87C1164.71 1434.14 1164.71 1434.14 1149.8 1445.91C1147.78 1448.36 1145.76 1450.82 1143.77 1453.29C1138.97 1458.75 1133.49 1463.69 1127.67 1468.04C1126.54 1468.04 1125.42 1468.04 1124.26 1468.04C1124.26 1469.16 1124.26 1470.29 1124.26 1471.44C1121.06 1474.18 1117.85 1476.71 1114.47 1479.21C1113.47 1479.97 1112.46 1480.73 1111.43 1481.5C1109.35 1483.07 1107.26 1484.64 1105.17 1486.2C1102.4 1488.27 1099.64 1490.36 1096.89 1492.46C1077.06 1507.51 1057.03 1521.07 1035.19 1532.95C1034.11 1533.54 1033.04 1534.13 1031.93 1534.74C1015.93 1543.51 999.841 1551.39 982.941 1558.28C979.992 1559.69 977.047 1561.11 974.109 1562.54C938.023 1578.99 897.569 1588.85 858.649 1595.74C856.579 1596.1 854.509 1596.47 852.377 1596.85C781.001 1608.59 703.909 1602.43 633.901 1585.52C631.478 1584.95 631.478 1584.95 629.007 1584.37C596.965 1576.72 565.169 1566.85 535.148 1553.17C533.964 1552.63 532.78 1552.1 531.561 1551.54C513.47 1543.29 496.067 1534.36 478.961 1524.23C474.995 1521.94 471.019 1519.68 467.042 1517.42C467.042 1516.29 467.042 1515.17 467.042 1514.01C466.127 1513.86 465.212 1513.72 464.269 1513.57C458.844 1511.88 454.816 1509.01 450.122 1505.82C448.386 1504.65 446.65 1503.48 444.861 1502.27C440.182 1498.96 435.736 1495.49 431.287 1491.88C429.474 1490.46 427.658 1489.06 425.84 1487.65C410.401 1475.69 395.561 1463.32 381.91 1449.31C380.922 1448.36 379.935 1447.41 378.917 1446.43C369.44 1437.23 361.196 1427.27 352.965 1416.96C351.646 1415.36 350.327 1413.75 348.968 1412.1C347.101 1409.82 347.101 1409.82 345.197 1407.49C344.071 1406.12 342.945 1404.75 341.785 1403.33C339.344 1399.93 339.344 1399.93 339.344 1396.53C338.22 1396.53 337.097 1396.53 335.939 1396.53C333.404 1393.28 331.091 1390.05 328.809 1386.63C328.122 1385.62 327.435 1384.6 326.727 1383.56C324.674 1380.51 322.642 1377.46 320.615 1374.39C319.13 1372.17 319.13 1372.17 317.616 1369.89C314.561 1365.2 311.615 1360.45 308.697 1355.67C308.035 1354.58 307.373 1353.5 306.691 1352.39C293.537 1330.73 282.304 1308.33 271.663 1285.34C269.952 1281.65 268.212 1277.97 266.457 1274.3C246.402 1230.49 234.442 1178.66 228.673 1130.92C228.5 1129.5 228.327 1128.09 228.149 1126.64C220.608 1061.12 222.868 992.414 238.889 928.303C239.244 926.813 239.599 925.322 239.964 923.786C249.277 884.711 262.59 846.383 281.454 810.821C282.49 808.859 283.526 806.897 284.594 804.875C288.061 798.33 291.564 791.804 295.076 785.282C295.853 783.831 296.63 782.38 297.43 780.886C309.88 758.007 325.28 737.452 341.679 717.276C344.674 713.589 344.674 713.589 347.857 708.663C348.981 708.663 350.105 708.663 351.263 708.663C351.721 707.657 352.18 706.651 352.652 705.615C354.666 701.856 356.76 699.232 359.676 696.139C361.156 694.561 361.156 694.561 362.665 692.95C363.713 691.85 364.761 690.749 365.841 689.615C366.916 688.477 367.991 687.339 369.098 686.166C399.368 654.219 399.368 654.219 414.26 643.963C415.384 643.963 416.508 643.963 417.666 643.963C417.666 642.839 417.666 641.715 417.666 640.558C420.29 638.274 420.29 638.274 423.951 635.683C425.28 634.733 426.609 633.784 427.978 632.806C429.386 631.817 430.794 630.828 432.244 629.81C433.606 628.841 434.968 627.872 436.371 626.873C439.063 624.96 441.758 623.05 444.456 621.146C449.73 617.423 454.981 613.667 460.231 609.91Z" fill="#F0592A"/>
<path d="M967.625 554.03C970.685 555.281 973.757 556.5 976.831 557.715C988.464 562.383 999.335 567.888 1010.19 574.15C1011.14 574.685 1012.09 575.22 1013.08 575.771C1029.42 584.945 1043.96 595.481 1058.34 607.481C1061.05 609.73 1063.8 611.935 1066.55 614.135C1078.88 623.996 1091.26 634.376 1100.43 647.363C1100.43 648.487 1100.43 649.611 1100.43 650.768C1101.45 651.207 1102.47 651.645 1103.52 652.097C1107.59 654.373 1109.44 656.434 1112.19 660.166C1113.07 661.346 1113.94 662.526 1114.85 663.741C1115.74 664.973 1116.64 666.206 1117.56 667.476C1118.91 669.294 1118.91 669.294 1120.29 671.15C1124.78 677.247 1129 683.351 1132.78 689.929C1133.64 691.343 1134.51 692.756 1135.4 694.212C1153.07 723.584 1169.77 757.682 1173.64 792.087C1173.08 790.964 1172.52 789.84 1171.94 788.682C1170.81 788.682 1169.69 788.682 1168.53 788.682C1167.88 787.135 1167.88 787.135 1167.21 785.556C1161.57 773.222 1154 764.376 1144.69 754.629C1134.48 743.35 1134.48 743.35 1134.48 739.306C1133.53 738.902 1132.57 738.498 1131.59 738.082C1126.77 735.399 1123.35 732.063 1119.37 728.238C1087.77 698.77 1048.55 677.998 1008.48 662.687C1006.99 662.077 1005.5 661.467 1003.97 660.838C968.916 646.995 926.868 639.923 889.298 642.255C887.446 642.364 887.446 642.364 885.556 642.475C821.415 646.567 767.646 673.138 719.035 713.766C717.533 714.938 716.032 716.11 714.485 717.318C710.284 720.54 710.284 720.54 706.797 725.259C705.778 726.523 704.76 727.787 703.711 729.09C702.587 729.09 701.463 729.09 700.306 729.09C699.779 730.143 699.252 731.197 698.709 732.282C697.539 734.623 696.368 736.964 695.198 739.306C694.074 739.306 692.95 739.306 691.792 739.306C691.378 740.484 690.963 741.663 690.535 742.877C688.036 748.625 684.743 753.605 681.257 758.779C639.357 822.655 624.491 906.128 637.308 981.08C637.527 982.406 637.747 983.731 637.973 985.097C646.409 1034.78 665.681 1079.31 696.9 1118.99C698.114 1120.54 699.328 1122.09 700.578 1123.69C707.363 1132.18 713.847 1139.6 722.44 1146.24C723.737 1147.55 725.034 1148.87 726.371 1150.22C748.39 1171.98 775.954 1187.7 804.393 1199.34C807.751 1200.8 810.973 1202.44 814.223 1204.13C821.433 1207.79 828.831 1210.37 836.517 1212.85C837.803 1213.28 839.089 1213.71 840.414 1214.15C848.69 1216.86 856.989 1219.13 865.461 1221.15C864.9 1222.28 864.338 1223.4 863.759 1224.56C825.075 1225.44 787.454 1223.12 749.682 1214.34C747.913 1213.94 746.144 1213.54 744.321 1213.12C693.038 1200.93 644.948 1175.68 606.66 1139.43C604.293 1137.36 601.917 1135.3 599.531 1133.25C588.501 1123.62 578.689 1113.11 569.202 1101.97C567.313 1099.79 567.313 1099.79 565.385 1097.58C520.932 1045.6 497.198 987.334 487.476 919.785C487.144 917.667 486.813 915.549 486.472 913.367C478.952 850.473 491.357 783.704 519.826 727.387C520.512 726.023 521.197 724.659 521.903 723.254C530.465 706.298 538.966 689.779 550.473 674.605C552.322 671.877 554.167 669.146 556.007 666.411C562.368 657.295 569.526 648.929 576.778 640.519C579.565 637.262 582.275 633.935 584.879 630.53C585.886 629.342 586.893 628.155 587.931 626.931C589.055 626.931 590.179 626.931 591.337 626.931C591.78 625.917 592.223 624.903 592.68 623.859C594.891 619.85 596.998 617.731 600.488 614.8C601.7 613.777 602.911 612.755 604.16 611.701C605.547 610.546 606.934 609.392 608.363 608.202C609.961 606.837 611.559 605.472 613.205 604.066C710.66 521.43 850.704 506.078 967.625 554.03Z" fill="#F1582A"/>
<path d="M1014.09 773.301C1017.73 775.51 1021.5 777.049 1025.51 778.469C1025.51 779.593 1025.51 780.716 1025.51 781.874C1026.69 782.258 1027.87 782.642 1029.09 783.038C1035.13 785.785 1039.79 789.598 1044.77 793.899C1045.74 794.729 1046.71 795.559 1047.71 796.414C1054.68 802.472 1060.97 808.893 1066.91 815.974C1069.74 819.429 1069.74 819.429 1073.23 822.531C1077.21 826.81 1079.2 831.086 1081.69 836.359C1083.88 840.018 1086.08 843.671 1088.29 847.319C1095.47 859.585 1100.03 872.053 1103.83 885.735C1104.27 887.196 1104.71 888.657 1105.17 890.162C1109.12 904.16 1109.79 917.423 1109.68 931.919C1109.68 933.076 1109.67 934.232 1109.67 935.424C1109.34 989.68 1087.31 1032.4 1050.09 1070.9C1013.78 1106.3 964.992 1118.14 915.772 1117.66C869.573 1116.6 830.378 1095.73 797.353 1064.51C796.247 1063.48 795.14 1062.44 794.001 1061.37C762.862 1031.33 744.807 987.275 743.766 944.434C743.468 903.096 751.118 868.084 773.516 832.953C774.519 831.342 775.522 829.731 776.555 828.072C781.204 821.496 786.424 815.727 791.926 809.861C792.932 808.761 793.938 807.66 794.975 806.526C801.512 799.519 808.188 794.103 816.082 788.685C817.346 787.412 817.346 787.412 818.637 786.113C865.24 739.827 960.948 740.765 1014.09 773.301Z" fill="#F0592A"/>
<path d="M1646.96 691.637C1664.38 691.637 1681.8 691.637 1699.75 691.637C1699.75 720.854 1699.75 750.071 1699.75 780.174C1729.53 780.174 1759.3 780.174 1789.99 780.174C1789.99 751.518 1789.99 722.863 1789.99 693.339C1807.4 693.339 1824.82 693.339 1842.77 693.339C1842.77 768.068 1842.77 842.797 1842.77 919.79C1825.35 919.79 1807.93 919.79 1789.99 919.79C1789.99 888.887 1789.99 857.984 1789.99 826.145C1760.21 826.145 1730.43 826.145 1699.75 826.145C1699.75 857.048 1699.75 887.951 1699.75 919.79C1682.33 919.79 1664.91 919.79 1646.96 919.79C1646.96 844.5 1646.96 769.209 1646.96 691.637Z" fill="#241F21"/>
<path d="M2317.8 691.637C2369.5 691.637 2421.19 691.637 2474.45 691.637C2474.45 707.369 2474.45 723.101 2474.45 739.311C2440.17 739.311 2405.9 739.311 2370.59 739.311C2370.59 753.919 2370.59 768.528 2370.59 783.579C2399.8 783.579 2429.02 783.579 2459.12 783.579C2459.12 797.626 2459.12 811.673 2459.12 826.145C2429.91 826.145 2400.69 826.145 2370.59 826.145C2370.59 841.877 2370.59 857.61 2370.59 873.819C2405.42 873.819 2440.26 873.819 2476.15 873.819C2476.15 888.989 2476.15 904.16 2476.15 919.79C2423.9 919.79 2371.64 919.79 2317.8 919.79C2317.8 844.5 2317.8 769.209 2317.8 691.637Z" fill="#252022"/>
<path d="M1526.29 690.892C1528 690.902 1529.7 690.912 1531.46 690.923C1560.11 691.52 1584.86 701.414 1609.51 715.473C1606.72 725.597 1601.64 734.262 1596.53 743.354C1595.65 744.932 1594.77 746.51 1593.87 748.136C1591.71 752.009 1589.55 755.877 1587.37 759.742C1585.46 758.818 1583.55 757.894 1581.58 756.942C1560.3 746.732 1540.13 737.1 1515.86 739.31C1508.84 741.865 1504.01 744.476 1500.54 751.229C1499.62 757.433 1499.97 760.448 1503.09 765.914C1514 776.274 1528.08 778.861 1542.25 782.302C1568.95 789.145 1595.89 797.846 1611.14 822.36C1618.97 839.041 1619.41 861.708 1613.55 879.139C1605.73 896.989 1593.6 908.001 1575.99 915.959C1550.83 925.765 1523.25 925.25 1497.13 919.79C1494.64 919.352 1494.64 919.352 1492.09 918.905C1473.79 915.33 1450.23 908.431 1435.84 895.953C1436.9 887.719 1440.37 881.193 1444.14 873.925C1444.74 872.75 1445.34 871.574 1445.96 870.364C1447.13 868.059 1448.31 865.757 1449.49 863.457C1451.79 858.983 1454.03 854.484 1456.27 849.982C1463.38 851.549 1469.35 854.807 1475.75 858.176C1497.02 869.113 1521.92 878.42 1546.08 872.715C1550.17 871.184 1553.33 869.745 1556.73 867.008C1559.27 861.238 1559.27 861.238 1558.43 855.09C1553.19 844.105 1543.86 840.436 1532.89 836.361C1525.5 834.028 1518.02 832.014 1510.54 829.976C1487.37 823.587 1463.08 814.964 1449.46 793.795C1442.21 779.043 1441.99 759.926 1445.59 744.092C1447.17 739.464 1448.99 735.177 1451.16 730.797C1452.03 728.97 1452.03 728.97 1452.91 727.106C1462.16 710.084 1480.19 699.892 1498.08 694.057C1507.56 691.276 1516.46 690.788 1526.29 690.892Z" fill="#242021"/>
<path d="M2317.8 984.492C2369.5 984.492 2421.19 984.492 2474.45 984.492C2474.45 1000.22 2474.45 1015.96 2474.45 1032.17C2440.17 1032.17 2405.9 1032.17 2370.59 1032.17C2370.59 1046.77 2370.59 1061.38 2370.59 1076.43C2399.8 1076.43 2429.02 1076.43 2459.12 1076.43C2459.12 1089.92 2459.12 1103.4 2459.12 1117.3C2429.91 1117.3 2400.69 1117.3 2370.59 1117.3C2370.59 1133.59 2370.59 1149.89 2370.59 1166.67C2405.42 1166.67 2440.26 1166.67 2476.15 1166.67C2476.15 1181.84 2476.15 1197.02 2476.15 1212.65C2423.9 1212.65 2371.64 1212.65 2317.8 1212.65C2317.8 1137.36 2317.8 1062.06 2317.8 984.492Z" fill="#252021"/>
<path d="M1835.96 1003.22C1846.58 1012.22 1854.53 1020.94 1859.8 1033.87C1851 1040.94 1842 1047.69 1832.77 1054.2C1831.82 1054.88 1830.87 1055.56 1829.89 1056.27C1822.94 1061.11 1822.94 1061.11 1817.24 1061.11C1816.39 1058.95 1816.39 1058.95 1815.53 1056.75C1809.02 1045.56 1799.09 1037.6 1786.59 1033.87C1774.69 1032.1 1758.77 1031 1748.07 1037.17C1745.07 1039.52 1745.07 1039.52 1742.32 1042.39C1741.14 1043.5 1739.96 1044.62 1738.74 1045.76C1722.69 1062.23 1719.63 1080.8 1719.53 1102.92C1719.84 1121.59 1726.7 1138.82 1738.91 1153.06C1750.9 1163.87 1762.63 1165.93 1778.53 1165.51C1792.14 1164.37 1802.98 1158.02 1812.13 1147.95C1814.77 1144.06 1816.83 1140.25 1818.94 1136.03C1833.78 1143.09 1847.66 1151.07 1861.5 1159.87C1860.15 1173.04 1852.4 1181.29 1842.97 1190.12C1817.63 1210.3 1785.97 1217.31 1754.24 1214.35C1748.12 1213.37 1742.88 1211.73 1737.21 1209.24C1735.57 1208.56 1733.94 1207.87 1732.25 1207.17C1706.25 1195.32 1684.61 1171.7 1673.4 1145.45C1661.46 1113.22 1659.81 1081.55 1673.44 1049.59C1686.55 1021.87 1706.32 1001.66 1734.64 989.484C1767.79 977.69 1807.64 982.684 1835.96 1003.22Z" fill="#252021"/>
<path d="M1546.37 990.887C1550.05 992.498 1553.35 994.261 1556.73 996.414C1558.31 997.329 1558.31 997.329 1559.91 998.263C1562.8 1000.03 1562.8 1000.03 1566.95 1003.22C1566.95 1004.35 1566.95 1005.47 1566.95 1006.63C1568.07 1006.63 1569.2 1006.63 1570.35 1006.63C1583.54 1030.11 1583.54 1030.11 1582.27 1044.09C1581.15 1045.77 1580.02 1047.46 1578.87 1049.2C1573.55 1049.52 1573.55 1049.52 1568.65 1049.2C1568.02 1047.25 1568.02 1047.25 1567.37 1045.26C1566.67 1043.19 1565.97 1041.11 1565.25 1038.98C1564.81 1037.5 1564.37 1036.02 1563.92 1034.49C1559.82 1021.59 1554.81 1015.13 1543.4 1008.12C1534.12 1004.38 1522.43 1005.11 1513.02 1008.06C1503.42 1012.85 1498.43 1019.27 1493.73 1028.76C1493.17 1029.89 1492.61 1031.01 1492.03 1032.17C1490.98 1043.19 1492.05 1051.32 1497.14 1061.11C1497.63 1062.34 1498.12 1063.57 1498.63 1064.84C1500.54 1068.35 1500.54 1068.35 1505.01 1071.12C1509.06 1074.74 1509.06 1074.74 1510.55 1079.63C1508.46 1087.08 1504.32 1088.52 1497.91 1092.42C1485.13 1100.83 1478.34 1112.78 1475.01 1127.52C1472.96 1143.65 1475.76 1157.88 1485.02 1171.33C1495.44 1183.96 1506.16 1191.15 1522.58 1192.96C1535.88 1193.59 1546.75 1192.09 1558.43 1185.41C1560.12 1184.81 1561.81 1184.21 1563.54 1183.6C1564.67 1183.07 1565.79 1182.54 1566.95 1182C1567.79 1179.47 1567.79 1179.47 1568.65 1176.89C1569.77 1176.89 1570.9 1176.89 1572.06 1176.89C1572.55 1175.91 1573.03 1174.93 1573.54 1173.92C1574.76 1171.48 1575.99 1169.05 1577.22 1166.62C1578.09 1164.91 1578.09 1164.91 1578.97 1163.17C1579.85 1161.45 1579.85 1161.45 1580.74 1159.7C1584.16 1152.48 1584.18 1146.07 1584.08 1138.27C1584.07 1137.07 1584.07 1135.88 1584.06 1134.64C1584.04 1131.7 1584.01 1128.76 1583.97 1125.81C1568.08 1125.15 1554.82 1125.22 1541.41 1134.43C1534.19 1141.42 1535.62 1150.16 1535.08 1159.71C1534.6 1164.98 1534.6 1164.98 1532.89 1166.68C1527.89 1167.1 1527.89 1167.1 1522.68 1166.68C1518.56 1160.49 1518.77 1157.33 1518.74 1149.97C1518.71 1147.92 1518.68 1145.88 1518.66 1143.77C1519.76 1132.96 1524.65 1125.84 1532.89 1119C1549.51 1108.83 1565.49 1108.43 1584.46 1108.21C1590.86 1107.99 1594.78 1107.81 1600.22 1104.26C1603.35 1099.24 1603.61 1095.74 1603.77 1089.85C1604.07 1080.17 1604.07 1080.17 1607.81 1076.44C1612.07 1076.01 1612.07 1076.01 1616.32 1076.44C1620.51 1080.62 1620.22 1083.08 1620.28 1088.81C1620.27 1090.53 1620.27 1090.53 1620.26 1092.29C1620.29 1094.53 1620.32 1096.78 1620.35 1099.08C1619.58 1106.86 1617.39 1111.05 1612.01 1116.59C1604.78 1122.41 1604.78 1122.41 1601 1122.41C1601.43 1124.19 1601.43 1124.19 1601.87 1126.01C1605.08 1144.96 1599.46 1163.83 1589.51 1179.87C1578.23 1195.71 1563.56 1204.76 1544.81 1209.24C1528.05 1210.96 1510.17 1211.44 1495.44 1202.43C1493.87 1201.48 1492.3 1200.53 1490.68 1199.55C1473.97 1188.4 1462.03 1173 1457.98 1153.06C1455.25 1127.75 1459.68 1109.34 1475.17 1088.89C1480.41 1082.52 1480.41 1082.52 1483.52 1079.84C1484.64 1079.84 1485.77 1079.84 1486.92 1079.84C1485.85 1077.72 1485.85 1077.72 1484.75 1075.55C1483.82 1073.7 1482.88 1071.85 1481.92 1069.95C1480.99 1068.11 1480.07 1066.27 1479.11 1064.38C1473.23 1052.21 1472.97 1037.27 1476.11 1024.16C1482.59 1008.34 1493.9 998.5 1509.06 991.306C1518.65 986.509 1536.11 988.232 1546.37 990.887Z" fill="#262324"/>
<path d="M2377.4 1299.48C2389.32 1299.48 2389.32 1299.48 2393.29 1302.49C2394.44 1303.88 2395.59 1305.28 2396.77 1306.72C2398.71 1309.06 2398.71 1309.06 2400.7 1311.45C2405.87 1318.09 2410.92 1324.81 2415.9 1331.59C2420.22 1337.28 2424.77 1342.7 2429.44 1348.11C2450.65 1372.82 2450.65 1372.82 2454.02 1382.91C2455.14 1382.91 2456.26 1382.91 2457.42 1382.91C2457.98 1355.38 2458.55 1327.85 2459.13 1299.48C2464.18 1299.48 2469.24 1299.48 2474.45 1299.48C2474.45 1337.13 2474.45 1374.77 2474.45 1413.56C2460.83 1413.56 2460.83 1413.56 2457.24 1410.3C2456.31 1408.78 2455.39 1407.25 2454.44 1405.68C2449.07 1397.46 2443.36 1390.08 2436.88 1382.7C2421.76 1365.28 2408.31 1346.94 2394.42 1328.43C2393.86 1355.96 2393.3 1383.49 2392.72 1411.85C2387.67 1411.85 2382.61 1411.85 2377.4 1411.85C2377.4 1374.77 2377.4 1337.69 2377.4 1299.48Z" fill="#2D2B2B"/>
<path d="M1788.29 1299.48C1800.2 1299.48 1800.2 1299.48 1803.47 1301.79C1804.3 1302.86 1805.13 1303.93 1805.98 1305.03C1807.41 1306.82 1807.41 1306.82 1808.86 1308.65C1809.83 1309.94 1810.8 1311.24 1811.8 1312.57C1812.84 1313.89 1813.88 1315.21 1814.95 1316.58C1818.02 1320.5 1821.03 1324.46 1824.04 1328.43C1825.55 1330.39 1827.07 1332.36 1828.59 1334.32C1831.29 1337.83 1833.99 1341.34 1836.67 1344.87C1841.92 1351.72 1847.34 1358.43 1852.77 1365.14C1853.71 1366.3 1854.64 1367.45 1855.6 1368.64C1856.49 1369.74 1857.38 1370.83 1858.29 1371.96C1859.08 1372.92 1859.86 1373.89 1860.67 1374.88C1863.61 1378.28 1866.83 1381.43 1870.01 1384.61C1870.01 1356.52 1870.01 1328.43 1870.01 1299.48C1874.51 1299.48 1879 1299.48 1883.63 1299.48C1883.63 1337.13 1883.63 1374.77 1883.63 1413.56C1871.71 1413.56 1871.71 1413.56 1867.62 1410C1866.44 1408.4 1865.26 1406.8 1864.05 1405.15C1862.74 1403.42 1861.44 1401.69 1860.09 1399.91C1858.87 1398.23 1857.65 1396.56 1856.39 1394.83C1854.56 1392.44 1852.71 1390.07 1850.86 1387.7C1849.43 1385.85 1849.43 1385.85 1847.98 1383.97C1842.5 1376.99 1836.88 1370.13 1831.25 1363.26C1821.86 1351.78 1812.78 1340.1 1803.61 1328.43C1803.05 1355.96 1802.49 1383.49 1801.91 1411.85C1797.41 1411.85 1792.92 1411.85 1788.29 1411.85C1788.29 1374.77 1788.29 1337.69 1788.29 1299.48Z" fill="#221F20"/>
<path d="M1910.88 1299.48C1975.41 1299.48 1975.41 1299.48 1992.81 1316.13C1997.71 1321.93 2000.54 1328.04 2002.82 1335.24C2003.3 1336.75 2003.3 1336.75 2003.8 1338.29C2006.98 1354.8 2005.92 1373.21 1997.71 1388.02C1986.04 1404.72 1975.49 1408.47 1955.14 1413.56C1940.53 1413.56 1925.93 1413.56 1910.88 1413.56C1910.88 1375.91 1910.88 1338.27 1910.88 1299.48ZM1926.2 1313.1C1926.2 1341.76 1926.2 1370.41 1926.2 1399.94C1953.79 1400.92 1953.79 1400.92 1976.85 1392.17C1987.25 1380.9 1991.6 1366.97 1991.36 1351.9C1990.18 1339.75 1986.45 1329.75 1977.28 1321.51C1960.51 1308.12 1952.93 1313.1 1926.2 1313.1Z" fill="#2F2C2D"/>
<path d="M2328.13 1303C2331.62 1305.39 2331.62 1305.39 2334.83 1308C2335.89 1308.82 2336.95 1309.65 2338.04 1310.5C2348.9 1320.09 2356.53 1332.96 2357.84 1347.5C2358.47 1361.55 2357.16 1373.87 2350.15 1386.32C2349.17 1388.11 2348.19 1389.9 2347.17 1391.75C2338.91 1402.08 2329.45 1411.1 2316.1 1413.56C2296.97 1415.6 2285.33 1411.84 2269.7 1401.32C2255.98 1387.28 2250.69 1371.65 2250.78 1352.34C2251.18 1336.29 2258.03 1324.96 2268.43 1313.11C2283.9 1299.14 2308.67 1292.73 2328.13 1303ZM2274.09 1326.6C2265.4 1340.21 2265.13 1353.73 2266.72 1369.29C2270.23 1381.8 2278.01 1391.18 2288.86 1398.24C2298.69 1401.65 2310.9 1402.05 2320.54 1398.14C2331.5 1391.36 2336.75 1382.78 2342.17 1371.42C2345.33 1356.51 2344.8 1341.57 2336.53 1328.43C2328.23 1319.04 2320.11 1312.46 2307.44 1310.99C2292.95 1310.15 2283.29 1315.71 2274.09 1326.6Z" fill="#272425"/>
<path d="M1617.17 1302.89C1631.25 1311.3 1641.04 1322.64 1646.25 1338.17C1649.21 1354.15 1649.24 1372.45 1640.16 1386.32C1639.44 1387.5 1638.72 1388.68 1637.97 1389.89C1630.61 1400.84 1621.01 1407.55 1608.87 1412.49C1590.79 1415.61 1576.97 1413.23 1561.52 1403.24C1549.2 1391.86 1542.18 1377.12 1541.05 1360.66C1540.48 1341.97 1544.14 1328.78 1556.73 1314.8C1572.64 1298.64 1595.95 1293.15 1617.17 1302.89ZM1564.5 1326.72C1554.99 1340.16 1555.16 1355.12 1556.73 1370.99C1559.34 1381.56 1566.94 1389.98 1575.46 1396.53C1585.66 1401.6 1597.45 1401.76 1608.4 1398.89C1619.77 1393.93 1626.48 1384.19 1631.43 1373.12C1635.82 1359.72 1634.82 1345.17 1629.03 1332.39C1623.4 1323.44 1615.51 1316.95 1606.11 1312.25C1588.76 1309.36 1575.76 1312.28 1564.5 1326.72Z" fill="#262324"/>
<path d="M2099.87 984.492C2230.55 984.492 2230.55 984.492 2254.49 1006.95C2270.39 1023.9 2278.07 1044.45 2277.42 1067.53C2275.45 1090.15 2265.25 1109.43 2248 1124.11C2246.31 1125.23 2244.63 1126.36 2242.89 1127.51C2245.07 1133.28 2247.56 1138.49 2250.74 1143.77C2251.6 1145.21 2252.47 1146.65 2253.36 1148.13C2254.26 1149.62 2255.16 1151.1 2256.08 1152.63C2256.96 1154.09 2257.83 1155.54 2258.73 1157.04C2263.82 1165.48 2269.09 1173.75 2274.64 1181.9C2277.79 1186.7 2280.56 1191.69 2283.29 1196.75C2285.15 1200.17 2287.06 1203.55 2289 1206.93C2290.61 1209.76 2290.61 1209.76 2292.27 1212.65C2239.67 1218.01 2239.67 1218.01 2226.39 1209.83C2219.42 1202.22 2215.99 1193.03 2212.51 1183.44C2209.15 1175.18 2204.18 1168.01 2199.26 1160.61C2197.56 1157.95 2195.87 1155.29 2194.19 1152.62C2191.73 1148.76 2189.24 1144.94 2186.7 1141.13C2175.46 1140.57 2164.23 1140.01 2152.65 1139.43V1212.65H2099.87V984.492ZM2194.22 1031.33C2191.96 1031.35 2189.78 1031.37 2187.59 1031.39C2184.76 1031.47 2182 1031.55 2179.25 1031.63C2165.82 1031.9 2165.82 1031.9 2152.65 1032.16V1093.46C2161.22 1093.49 2169.55 1093.53 2177.87 1093.56C2180.57 1093.58 2183.19 1093.59 2185.81 1093.61C2187.93 1093.61 2189.99 1093.62 2192.06 1093.62C2195.95 1093.64 2199.84 1093.6 2203.73 1093.46C2211.29 1090.94 2215.4 1087.74 2219.48 1080.9C2224.72 1069.7 2224.27 1056.52 2220.54 1044.93C2214.86 1037.36 2210.34 1032.67 2200.97 1031.2C2197.56 1031.26 2197.56 1031.26 2194.22 1031.33Z" fill="#252022"/>
<path d="M2099.87 691.637C2227.05 691.637 2227.05 691.637 2248 708.663C2249.15 709.563 2250.3 710.463 2251.48 711.39C2264.97 723.259 2275.85 743.728 2277.41 761.691C2278.01 783.624 2273.8 804.51 2258.21 821.037C2257.16 822.159 2256.11 823.28 2255.03 824.436C2247.22 832.493 2247.22 832.493 2242.89 834.658C2245.9 843.423 2250.77 851.039 2255.55 858.921C2256.45 860.414 2257.35 861.906 2258.28 863.444C2265.8 875.857 2273.62 888.066 2281.58 900.203C2282.87 902.191 2284.16 904.18 2285.46 906.169C2286.47 907.734 2287.49 909.299 2288.53 910.911C2290.56 914.682 2290.56 914.682 2290.56 919.79C2239.52 925.15 2239.52 925.151 2226.47 916.97C2219.55 909.341 2216.08 900.138 2212.54 890.582C2209.14 882.354 2204.11 875.222 2199.15 867.859C2197.43 865.226 2195.72 862.584 2194.02 859.932C2192.95 858.277 2192.95 858.278 2191.85 856.59C2190.11 853.387 2190.11 853.387 2188.4 846.577H2152.65V919.79H2099.87V691.637ZM2191.56 738.808C2188.42 738.827 2188.42 738.828 2185.35 738.847C2181.41 738.918 2181.41 738.918 2177.55 738.987C2164.97 739.149 2164.97 739.149 2152.65 739.307V800.602C2161.73 800.746 2170.54 800.887 2179.36 801.027C2183.59 801.122 2183.59 801.122 2187.74 801.215C2190 801.232 2192.19 801.25 2194.38 801.267C2201.16 801.375 2201.16 801.375 2207.13 800.602C2215.27 795.19 2219.69 789.503 2222.46 780.17C2223.75 765.972 2222.83 755.942 2213.94 744.414C2208.4 740.983 2204.39 739.372 2197.88 738.727L2191.56 738.808Z" fill="#252022"/>
<path d="M1667.4 1299.48C1671.9 1299.48 1676.39 1299.48 1681.02 1299.48C1681.05 1302.6 1681.05 1302.6 1681.07 1305.77C1681.14 1313.55 1681.25 1321.32 1681.38 1329.1C1681.43 1332.45 1681.46 1335.8 1681.49 1339.15C1681.52 1344 1681.6 1348.84 1681.69 1353.69C1681.69 1355.16 1681.69 1356.64 1681.7 1358.16C1681.97 1369.71 1684.17 1382.02 1692.12 1390.9C1701.26 1398.68 1708.03 1398.83 1719.72 1398.7C1727.68 1398.03 1731.05 1396.53 1737.21 1391.42C1746.52 1378.59 1747.9 1364.02 1748.13 1348.53C1748.17 1347.12 1748.2 1345.7 1748.23 1344.24C1748.33 1339.79 1748.41 1335.33 1748.49 1330.87C1748.56 1327.83 1748.62 1324.78 1748.69 1321.73C1748.85 1314.31 1749 1306.9 1749.13 1299.48C1753.62 1299.48 1758.12 1299.48 1762.75 1299.48C1762.92 1309.02 1763.04 1318.55 1763.13 1328.09C1763.16 1331.32 1763.21 1334.56 1763.26 1337.79C1763.66 1359.89 1763.94 1380.95 1750.83 1399.94C1749.71 1399.94 1748.59 1399.94 1747.43 1399.94C1747.43 1401.06 1747.43 1402.18 1747.43 1403.34C1744.74 1404.73 1742.04 1406.11 1739.34 1407.49C1737.84 1408.26 1736.34 1409.03 1734.79 1409.83C1723.04 1415.26 1708.25 1415.73 1695.92 1411.75C1684.16 1406.5 1675.65 1397.91 1670.28 1386.3C1666.94 1376.67 1667.18 1367.25 1667.24 1357.18C1667.24 1355.53 1667.24 1353.88 1667.24 1352.17C1667.25 1346.92 1667.28 1341.66 1667.3 1336.41C1667.31 1332.84 1667.31 1329.27 1667.32 1325.7C1667.34 1316.96 1667.37 1308.22 1667.4 1299.48Z" fill="#252122"/>
<path d="M1457.97 1299.48C1482.69 1299.48 1507.42 1299.48 1532.89 1299.48C1532.89 1303.41 1532.89 1307.35 1532.89 1311.4C1512.66 1311.4 1492.43 1311.4 1471.59 1311.4C1471.59 1324.32 1471.59 1337.24 1471.59 1350.56C1488.45 1350.56 1505.31 1350.56 1522.67 1350.56C1522.67 1354.49 1522.67 1358.43 1522.67 1362.48C1505.82 1362.48 1488.96 1362.48 1471.59 1362.48C1471.59 1378.77 1471.59 1395.07 1471.59 1411.85C1467.1 1411.85 1462.6 1411.85 1457.97 1411.85C1457.97 1374.77 1457.97 1337.69 1457.97 1299.48Z" fill="#221E20"/>
<path d="M2108.38 1299.48C2138.72 1299.48 2169.06 1299.48 2200.33 1299.48C2200.33 1303.98 2200.33 1308.47 2200.33 1313.1C2187.4 1313.1 2174.48 1313.1 2161.16 1313.1C2161.16 1345.69 2161.16 1378.28 2161.16 1411.85C2156.67 1411.85 2152.17 1411.85 2147.54 1411.85C2147.54 1378.7 2147.54 1345.55 2147.54 1311.4C2134.62 1311.4 2121.7 1311.4 2108.38 1311.4C2108.38 1307.47 2108.38 1303.53 2108.38 1299.48Z" fill="#211F20"/>
<path d="M1959.52 986.02C1961.43 986.025 1963.35 986.03 1965.32 986.036C1967.33 986.05 1969.35 986.064 1971.43 986.079C1973.45 986.087 1975.47 986.095 1977.56 986.103C1982.57 986.123 1987.59 986.152 1992.6 986.186C1998.23 997.012 2003.15 1007.85 2007.37 1019.29C2008.55 1022.45 2009.73 1025.6 2010.92 1028.75C2011.85 1031.24 2011.85 1031.24 2012.79 1033.78C2016.21 1042.9 2019.69 1051.99 2023.17 1061.09C2024.65 1064.97 2026.13 1068.85 2027.61 1072.73C2040.63 1106.84 2053.66 1140.95 2066.88 1174.98C2067.54 1176.68 2068.2 1178.39 2068.88 1180.15C2070.35 1183.93 2071.84 1187.71 2073.34 1191.48C2074.12 1193.47 2074.91 1195.46 2075.71 1197.51C2076.43 1199.31 2077.14 1201.11 2077.88 1202.96C2079.44 1207.53 2079.44 1207.53 2079.44 1212.64H2023.25C2020.72 1205.47 2018.19 1198.31 2015.59 1190.93C2014.79 1188.68 2013.99 1186.43 2013.17 1184.11C2012.54 1182.33 2011.92 1180.55 2011.28 1178.72L2009.33 1173.21C2007.93 1168.37 2007.93 1168.37 2007.93 1161.56C1984.33 1162.12 1960.73 1162.68 1936.42 1163.26C1930.8 1179.55 1925.18 1195.85 1919.39 1212.64H1863.2C1868.95 1193.48 1868.95 1193.48 1871.75 1186.25C1872.69 1183.81 1872.69 1183.81 1873.64 1181.32C1874.31 1179.61 1874.97 1177.9 1875.66 1176.14C1876.72 1173.38 1876.72 1173.38 1877.81 1170.57C1880.06 1164.73 1882.33 1158.89 1884.59 1153.04C1886.07 1149.23 1887.54 1145.42 1889.01 1141.6C1891.96 1133.96 1894.92 1126.33 1897.87 1118.69C1903.16 1105.02 1908.42 1091.34 1913.68 1077.66C1921.25 1057.94 1928.84 1038.23 1936.74 1018.64C1940.38 1009.58 1943.82 1000.47 1947.04 991.254C1948.97 986.236 1948.97 986.236 1954.14 985.992C1956.8 986.006 1956.8 986.006 1959.52 986.02ZM1970.47 1044.08C1967.41 1051.98 1964.63 1059.83 1962.32 1067.98C1959.33 1078.61 1956.08 1089.05 1952.27 1099.42C1948.88 1108.36 1947.07 1116.19 1944.93 1125.81H1997.71C1997.71 1121.92 1997.71 1121.92 1992.1 1104.26C1990.5 1099.26 1988.92 1094.27 1987.35 1089.26C1986 1084.96 1984.64 1080.66 1983.29 1076.37C1982.59 1074.19 1981.91 1072.01 1981.22 1069.83C1980.53 1067.63 1979.86 1065.5 1979.19 1063.36C1978.54 1061.3 1977.9 1059.29 1977.26 1057.29C1975.47 1051.62 1974.68 1048.29 1970.47 1044.08Z" fill="#241F21"/>
<path d="M1992.6 691.637C1997.64 702.727 2002.52 713.531 2006.74 724.898C2007.48 726.847 2007.48 726.847 2008.22 728.835C2009.76 732.928 2011.29 737.024 2012.82 741.12C2014.84 746.497 2016.86 751.873 2018.88 757.248C2019.38 758.583 2019.88 759.918 2020.39 761.294C2024.36 771.847 2028.44 782.356 2032.54 792.856C2035.69 800.926 2038.77 809.016 2041.79 817.133C2047.74 833.089 2053.89 848.967 2060.04 864.848C2062.01 869.938 2063.98 875.03 2065.94 880.121C2067.2 883.383 2068.47 886.645 2069.73 889.907C2070.31 891.417 2070.89 892.926 2071.5 894.481C2072.04 895.893 2072.59 897.304 2073.15 898.758C2073.65 900.061 2074.16 901.364 2074.67 902.707C2075.78 905.53 2076.95 908.33 2078.13 911.123C2079.44 914.682 2079.44 914.682 2079.44 919.79H2023.25C2017.63 903.496 2012.01 887.202 2006.22 870.414C1982.63 869.852 1959.03 869.29 1934.71 868.711C1934.15 872.644 1933.59 876.578 1933.01 880.63C1932.19 883.61 1931.29 886.568 1930.3 889.495C1929.77 891.055 1929.25 892.614 1928.71 894.221C1927.89 896.606 1927.89 896.606 1927.05 899.039C1926.23 901.474 1926.23 901.474 1925.4 903.958C1921.38 915.806 1921.38 915.807 1919.39 919.79H1863.2C1866.6 908.476 1870.1 897.846 1874.59 887.015C1880.14 873.404 1885.32 859.699 1890.2 845.837C1893.87 835.551 1897.86 825.418 1901.94 815.291C1909.13 797.431 1915.99 779.454 1922.8 761.445C1931.63 738.072 1940.7 714.815 1950.04 691.637H1992.6ZM1969.54 754.026C1969.09 755.369 1968.66 756.672 1968.22 757.975C1967.2 761.047 1966.17 764.12 1965.15 767.192C1962.46 775.28 1959.78 783.37 1957.04 791.44C1956.55 792.87 1956.08 794.258 1955.6 795.646C1954.71 798.293 1953.81 800.94 1952.91 803.587C1949.54 813.336 1947.19 822.799 1944.93 832.957H1997.71C1997.71 829.552 1997.71 829.552 1996.83 826.321C1996.4 824.968 1995.99 823.655 1995.58 822.342C1995.1 820.808 1994.63 819.32 1994.16 817.831C1993.64 816.172 1993.13 814.561 1992.62 812.951C1991.55 809.563 1990.48 806.175 1989.4 802.788C1987.7 797.432 1986 792.075 1984.32 786.713C1983.22 783.219 1982.12 779.727 1981.01 776.236C1980.47 774.536 1979.95 772.886 1979.42 771.236C1978.9 769.577 1978.4 767.967 1977.89 766.356C1977.16 764.078 1977.16 764.078 1976.45 761.846C1974.9 756.942 1974.17 754.93 1970.47 751.23C1970.15 752.181 1969.84 753.104 1969.54 754.026Z" fill="#241F21"/>
<path d="M2217.35 1299.48C2221.85 1299.48 2226.34 1299.48 2230.97 1299.48C2230.97 1336.56 2230.97 1373.65 2230.97 1411.85C2226.48 1411.85 2221.98 1411.85 2217.35 1411.85C2217.35 1374.77 2217.35 1337.69 2217.35 1299.48Z" fill="#221E20"/>
<path d="M2070.28 1302.08C2074.01 1311.23 2077.74 1320.38 2081.47 1329.52C2082.86 1332.91 2084.24 1336.3 2085.62 1339.69C2093.73 1359.61 2101.94 1379.46 2110.57 1399.16C2111.18 1400.56 2111.79 1401.95 2112.41 1403.39C2112.95 1404.62 2113.49 1405.85 2114.04 1407.11C2115.19 1410.15 2115.19 1410.15 2115.19 1413.56H2098.17C2096.5 1409.16 2094.83 1404.76 2093.17 1400.36C2092.69 1399.12 2092.22 1397.88 2091.73 1396.6C2091.28 1395.39 2090.82 1394.18 2090.35 1392.94C2089.93 1391.83 2089.51 1390.73 2089.08 1389.59C2087.94 1386.29 2087.09 1382.89 2086.25 1379.5H2036.87C2036.31 1382.31 2035.75 1385.12 2035.17 1388.02C2033.82 1391.87 2032.39 1395.7 2030.91 1399.51C2030.16 1401.47 2029.4 1403.43 2028.62 1405.44C2026.66 1410.15 2026.66 1410.15 2024.95 1411.85C2020.41 1412.09 2015.89 1411.93 2011.33 1411.85C2012.35 1401.62 2016.37 1392.85 2020.35 1383.48C2021.08 1381.73 2021.82 1379.98 2022.57 1378.18C2024.92 1372.58 2027.28 1367 2029.64 1361.41C2031.2 1357.7 2032.76 1353.98 2034.32 1350.26C2037.21 1343.36 2040.11 1336.46 2043.02 1329.57C2047.25 1319.55 2051.43 1309.52 2055.6 1299.48H2069.22C2069.57 1300.34 2069.92 1301.2 2070.28 1302.08ZM2060.71 1318.21C2059.17 1321.76 2057.64 1325.32 2056.11 1328.88C2055.47 1330.39 2054.84 1331.85 2054.21 1333.32C2053.59 1334.76 2052.98 1336.16 2052.38 1337.56C2051.76 1339.01 2051.16 1340.41 2050.56 1341.82C2047.72 1348.43 2047.72 1348.43 2041.98 1367.58H2081.14C2081.14 1362.48 2081.14 1362.48 2079.57 1357.83C2078.84 1355.95 2078.13 1354.12 2077.41 1352.29C2076.62 1350.25 2075.85 1348.27 2075.08 1346.29C2074.25 1344.16 2073.44 1342.09 2072.62 1340.02C2069.8 1332.75 2066.96 1325.47 2064.11 1318.21H2060.71Z" fill="#2C292A"/>
</svg>
