<svg width="1563" height="435" viewBox="0 0 1563 435" fill="none" xmlns="http://www.w3.org/2000/svg">
<path d="M487.969 133.289C501.788 132.621 514.012 136.802 526 143.574C526 144.234 526 144.894 526 145.574C526.557 145.842 527.114 146.11 527.688 146.386C535.001 150.142 540.92 154.341 545 161.574C546.176 162.656 546.176 162.656 547.375 163.761C550.952 167.594 552.792 171.862 555 176.574C556.027 178.518 557.058 180.46 558.105 182.394C560.809 188.98 561.274 195.053 561.125 202.074C561.116 202.896 561.107 203.719 561.098 204.566C561.074 206.569 561.039 208.571 561 210.574C564.63 210.574 568.26 210.574 572 210.574C572.001 211.982 572.003 213.39 572.004 214.841C572.021 228.127 572.064 241.413 572.132 254.699C572.167 261.529 572.192 268.359 572.196 275.189C572.199 281.783 572.228 288.377 572.273 294.971C572.286 297.484 572.291 299.997 572.286 302.51C572.281 306.036 572.307 309.561 572.341 313.087C572.332 314.121 572.323 315.154 572.314 316.219C572.422 323.033 573.804 328.102 578 333.574C580.634 335.492 580.634 335.492 583 336.574C583 337.234 583 337.894 583 338.574C583.534 338.732 584.067 338.891 584.617 339.054C590.749 340.974 596.325 343.576 602 346.574C602 347.234 602 347.894 602 348.574C602.804 348.945 602.804 348.945 603.625 349.324C606.564 350.871 609.258 352.704 612 354.574C610.242 355.222 610.242 355.222 608 355.574C606.07 354.613 606.07 354.613 604.125 353.199C600.75 350.917 598.135 349.884 594 349.574C594 350.234 594 350.894 594 351.574C594.583 351.822 595.165 352.071 595.766 352.328C598.315 353.749 599.836 355.315 601.75 357.511C602.364 358.201 602.977 358.89 603.609 359.601C605 361.574 605 361.574 605 364.574C602.75 364.449 602.75 364.449 600 363.574C599.125 362.194 598.256 360.809 597.426 359.402C593.278 354.083 586.739 349.418 580 348.574C581.98 351.544 581.98 351.544 584 354.574C579.682 354.066 575.967 353.377 572 351.574C572.99 354.544 573.98 357.514 575 360.574C571.557 360.161 568.441 359.74 565.188 358.511C554.852 355.471 544.08 358.973 534.727 363.73C532.429 364.853 530.52 364.714 528 364.574C531.115 358.345 545.446 354.927 552 352.574C553.328 352.221 554.66 351.881 556 351.574C556 350.584 556 349.594 556 348.574C541.134 342.314 524.919 351.069 511.09 356.63C506.309 358.581 501.599 360.64 496.926 362.837C495 363.574 495 363.574 492 363.574C492 362.914 492 362.254 492 361.574C503.354 355.287 514.66 349.592 526.893 345.212C538.973 341.115 538.973 341.115 548 332.574C549.927 326.268 550.304 320.502 550.319 313.935C550.329 312.9 550.339 311.865 550.349 310.799C550.38 307.401 550.397 304.003 550.414 300.605C550.433 298.24 550.452 295.875 550.473 293.51C550.524 287.302 550.564 281.094 550.601 274.887C550.641 268.545 550.692 262.204 550.742 255.863C550.839 243.433 550.923 231.003 551 218.574C550.255 218.897 549.51 219.221 548.743 219.555C545.081 220.915 541.603 220.903 537.75 220.886C536.681 220.91 536.681 220.91 535.59 220.935C529.481 220.941 526.242 219.654 520 217.574C520 257.174 520 296.774 520 337.574C513.07 337.574 506.14 337.574 499 337.574C499 295.664 499 253.754 499 210.574C501.97 210.574 504.94 210.574 508 210.574C508 209.914 508 209.254 508 208.574C507.443 208.347 506.886 208.12 506.312 207.886C503.353 206.206 501.339 204.032 499 201.574C498.402 201.017 497.804 200.46 497.188 199.886C496 198.574 496 198.574 496 196.574C495.34 196.574 494.68 196.574 494 196.574C492.598 194.456 492.598 194.456 491.062 191.699C489.176 188.312 488.278 186.759 485 184.574C485 183.254 485 181.934 485 180.574C484.34 180.574 483.68 180.574 483 180.574C482.34 178.594 481.68 176.614 481 174.574C480.34 174.574 479.68 174.574 479 174.574C478.328 173.285 477.663 171.992 477 170.699C476.629 169.979 476.257 169.26 475.875 168.519C475 166.574 475 166.574 475 164.574C474.34 164.574 473.68 164.574 473 164.574C471.414 162.929 471.414 162.929 469.625 160.761C467.764 158.511 466.131 156.67 463.773 154.937C463.188 154.487 462.603 154.037 462 153.574C462 152.914 462 152.254 462 151.574C461.278 151.285 460.556 150.996 459.812 150.699C455.906 149.136 455.906 149.136 452 147.574C452 146.914 452 146.254 452 145.574C449.36 145.244 446.72 144.914 444 144.574C444 143.584 444 142.594 444 141.574C458.678 137.665 472.789 134.379 487.969 133.289Z" fill="#AED164"/>
<path d="M1299.14 243.139C1301.94 245.3 1303.87 247.751 1306 250.572C1306.99 251.562 1306.99 251.562 1308 252.572C1308.95 251.747 1309.9 250.922 1310.88 250.072C1313.75 247.572 1313.75 247.572 1316 247.572C1316 246.912 1316 246.252 1316 245.572C1318.48 243.881 1318.48 243.881 1321.75 242.01C1322.82 241.39 1323.88 240.77 1324.98 240.131C1332.41 236.293 1341.83 236.369 1349.81 238.635C1356.41 241.198 1361.9 246.218 1365 252.572C1365.8 253.903 1365.8 253.903 1366.62 255.26C1370.37 264.28 1369.13 275.029 1369.1 284.643C1369.1 286.175 1369.09 287.708 1369.09 289.241C1369.09 293.242 1369.08 297.243 1369.07 301.245C1369.06 306.063 1369.05 310.882 1369.05 315.7C1369.04 322.991 1369.02 330.281 1369 337.572C1358.77 337.572 1348.54 337.572 1338 337.572C1337.95 333.033 1337.9 328.495 1337.85 323.818C1337.82 320.934 1337.78 318.049 1337.74 315.164C1337.68 310.591 1337.62 306.017 1337.58 301.444C1337.54 297.755 1337.49 294.065 1337.44 290.376C1337.42 288.972 1337.41 287.569 1337.4 286.165C1337.38 284.19 1337.35 282.216 1337.32 280.242C1337.31 279.12 1337.29 277.999 1337.28 276.844C1336.89 272.273 1336.39 267.958 1333.06 264.635C1326.91 262.5 1320.85 262.427 1314.87 265.135C1311.84 267.106 1311.11 268.129 1310.26 271.695C1309.97 275.868 1309.94 279.976 1310 284.154C1309.99 285.694 1309.98 287.234 1309.97 288.774C1309.94 292.817 1309.96 296.858 1309.99 300.901C1310.01 305.757 1309.98 310.613 1309.95 315.469C1309.92 322.838 1309.97 330.202 1310 337.572C1300.1 337.572 1290.2 337.572 1280 337.572C1279.94 330.799 1279.94 330.799 1279.89 323.889C1279.86 321.013 1279.83 318.137 1279.79 315.262C1279.74 310.706 1279.69 306.151 1279.65 301.595C1279.63 297.918 1279.59 294.242 1279.54 290.566C1279.52 289.169 1279.51 287.773 1279.5 286.376C1279.46 278.478 1279.02 271.911 1276 264.572C1275.34 264.572 1274.68 264.572 1274 264.572C1274 263.912 1274 263.252 1274 262.572C1266.26 262.83 1260.73 263.707 1254 267.572C1253.34 267.572 1252.68 267.572 1252 267.572C1252 290.672 1252 313.772 1252 337.572C1241.77 337.572 1231.54 337.572 1221 337.572C1221 305.232 1221 272.892 1221 239.572C1231.23 239.572 1241.46 239.572 1252 239.572C1252 242.872 1252 246.172 1252 249.572C1252.63 249.113 1253.26 248.654 1253.91 248.182C1268.21 237.924 1283.08 232.651 1299.14 243.139Z" fill="#232222"/>
<path d="M194 161.57C201.26 161.57 208.52 161.57 216 161.57C216 182.03 216 202.49 216 223.57C219.3 221.26 222.6 218.95 226 216.57C237.817 208.792 249.23 205.491 263.398 208.227C274.263 211.164 282.52 217.06 288.34 226.816C293.072 235.609 294.312 244.347 294.227 254.243C294.227 255.151 294.228 256.06 294.228 256.996C294.227 259.961 294.211 262.926 294.195 265.891C294.192 267.961 294.189 270.032 294.187 272.103C294.179 277.525 294.16 282.946 294.137 288.368C294.117 293.912 294.108 299.456 294.098 305C294.076 315.857 294.041 326.714 294 337.57C286.74 337.57 279.48 337.57 272 337.57C271.991 334.978 271.981 332.385 271.972 329.714C271.938 321.101 271.882 312.488 271.816 303.874C271.777 298.658 271.745 293.441 271.729 288.224C271.714 283.179 271.679 278.135 271.632 273.091C271.617 271.176 271.609 269.262 271.608 267.348C272.16 249.45 272.16 249.45 265.297 233.65C258.087 228.253 248.605 228.722 240 229.57C237.05 230.376 234.519 231.345 231.785 232.695C230 233.57 230 233.57 228 233.57C228 234.23 228 234.89 228 235.57C225.848 237.043 225.848 237.043 223.062 238.633C219.842 240.345 219.842 240.345 217 242.57C216.875 245.522 216.814 248.451 216.795 251.405C216.78 252.795 216.78 252.795 216.765 254.213C216.733 257.292 216.708 260.37 216.684 263.449C216.663 265.578 216.642 267.706 216.621 269.835C216.565 275.449 216.516 281.063 216.468 286.677C216.418 292.401 216.362 298.126 216.307 303.85C216.199 315.09 216.098 326.33 216 337.57C208.74 337.57 201.48 337.57 194 337.57C194 279.49 194 221.41 194 161.57Z" fill="#262425"/>
<path d="M1380 240.57C1390.56 240.57 1401.12 240.57 1412 240.57C1413.65 245.52 1415.3 250.47 1417 255.57C1417.99 258.241 1418.99 260.908 1420 263.57C1421 266.447 1421.96 269.336 1422.92 272.227C1423.18 273.014 1423.44 273.802 1423.71 274.614C1424.54 277.099 1425.36 279.585 1426.19 282.07C1426.75 283.768 1427.32 285.466 1427.88 287.164C1429.26 291.299 1430.63 295.434 1432 299.57C1432.16 298.997 1432.32 298.424 1432.49 297.833C1437.87 278.676 1437.87 278.676 1441 269.598C1442.51 265.032 1443.84 260.415 1445.16 255.794C1446.65 250.66 1448.31 245.652 1450 240.57C1460.23 240.57 1470.46 240.57 1481 240.57C1480.2 245.4 1479.26 248.852 1477.5 253.32C1474.21 261.827 1471.25 270.441 1468.34 279.081C1466.17 285.431 1463.8 291.633 1461.14 297.795C1459.54 301.703 1458.26 305.698 1456.96 309.715C1456.08 312.32 1455.11 314.843 1454.06 317.383C1452.34 321.571 1450.9 325.828 1449.5 330.133C1447.91 335.009 1446.14 339.686 1443.97 344.332C1441.97 348.95 1440.54 353.784 1439 358.57C1438.46 360.196 1437.92 361.821 1437.38 363.445C1437.05 364.431 1437.05 364.431 1436.71 365.438C1435.81 368.148 1434.9 370.859 1434 373.57C1423.11 373.57 1412.22 373.57 1401 373.57C1401.71 368.581 1402.15 365.648 1404 361.285C1404.39 360.342 1404.78 359.399 1405.19 358.428C1405.6 357.464 1406.01 356.501 1406.44 355.508C1413.2 340.514 1413.2 340.514 1410.95 324.777C1410.06 322.641 1409.16 320.509 1408.25 318.383C1407.33 316.159 1406.41 313.934 1405.49 311.707C1405.06 310.648 1404.62 309.589 1404.17 308.498C1399 295.57 1399 295.57 1399 289.57C1398.34 289.57 1397.68 289.57 1397 289.57C1396.49 287.968 1396 286.363 1395.5 284.758C1395.22 283.864 1394.94 282.971 1394.66 282.051C1394 279.57 1394 279.57 1394 276.57C1393.34 276.57 1392.68 276.57 1392 276.57C1391.84 275.988 1391.68 275.405 1391.52 274.805C1389.8 268.774 1387.61 263.102 1385.13 257.344C1384.2 255.067 1383.44 252.879 1382.81 250.508C1382.12 247.414 1382.12 247.414 1380 244.57C1380 243.25 1380 241.93 1380 240.57Z" fill="#232122"/>
<path d="M44 169.57C88.55 169.57 133.1 169.57 179 169.57C179 175.84 179 182.11 179 188.57C160.19 188.57 141.38 188.57 122 188.57C122 237.74 122 286.91 122 337.57C114.74 337.57 107.48 337.57 100 337.57C100 288.73 100 239.89 100 189.57C81.52 189.57 63.04 189.57 44 189.57C44 182.97 44 176.37 44 169.57Z" fill="#222021"/>
<path d="M627.999 96.5709C644.775 96.2735 661.293 97.0418 677.999 98.5709C675.752 100.818 673.637 101.871 670.812 103.321C661.927 108.106 654.774 114.03 650.999 123.571C650.022 125.396 649.021 127.208 647.999 129.008C645.903 132.793 644.135 136.37 642.999 140.571C642.339 140.571 641.679 140.571 640.999 140.571C640.841 141.142 640.682 141.713 640.519 142.301C634.976 161.564 634.976 161.564 628.999 168.571C628.133 169.932 628.133 169.932 627.249 171.321C619.683 182.251 608.775 192.518 595.656 196.235C592.161 196.677 588.702 196.677 585.187 196.633C584.494 196.629 583.801 196.624 583.087 196.62C581.391 196.608 579.695 196.59 577.999 196.571C577.492 179.633 584.605 162.965 592.999 148.571C593.659 148.571 594.319 148.571 594.999 148.571C595.244 147.858 595.489 147.145 595.742 146.411C601.725 132.901 614.954 125.806 626.999 118.571C605.438 128.744 589.219 144.952 578.999 166.571C578.339 166.571 577.679 166.571 576.999 166.571C576.938 167.355 576.876 168.138 576.812 168.946C575.879 173.109 574.178 176.332 572.21 180.09C570.688 183.209 569.805 186.203 568.999 189.571C568.009 189.241 567.019 188.911 565.999 188.571C563.755 183.738 563.688 179.162 563.749 173.946C563.755 172.765 563.755 172.765 563.761 171.56C563.856 165.102 564.613 158.885 565.999 152.571C566.659 152.571 567.319 152.571 567.999 152.571C568.082 151.602 568.164 150.632 568.249 149.633C568.94 144.866 570.869 140.854 572.999 136.571C573.349 135.837 573.698 135.104 574.058 134.348C579.666 123.346 588.743 115.195 598.999 108.571C599.659 108.571 600.319 108.571 600.999 108.571C600.999 107.911 600.999 107.251 600.999 106.571C609.677 101.268 617.729 98.0003 627.999 98.5709C627.999 97.9109 627.999 97.2509 627.999 96.5709Z" fill="#76A750"/>
<path d="M883.001 244.569C883.001 253.149 883.001 261.729 883.001 270.569C878.902 269.75 876.927 269.185 873.501 267.194C872.723 266.748 871.946 266.302 871.145 265.843C869.481 264.855 867.831 263.842 866.188 262.819C859.561 259.032 849.73 259.497 842.45 261.147C836.859 263.536 833.537 268.173 831.001 273.569C829.326 279.108 828.613 284.171 828.626 289.944C828.627 290.683 828.627 291.422 828.628 292.183C828.77 298.743 829.806 305.383 834.637 310.202C836.001 311.569 836.001 311.569 836.001 313.569C836.723 313.858 837.444 314.147 838.188 314.444C839.895 315.127 841.59 315.843 843.258 316.616C851.204 319.378 860.343 318.248 867.876 314.792C870.93 313.034 873.385 310.924 876.001 308.569C876.661 308.569 877.321 308.569 878.001 308.569C878.001 307.909 878.001 307.249 878.001 306.569C879.651 306.569 881.301 306.569 883.001 306.569C883.001 315.149 883.001 323.729 883.001 332.569C865.586 342.52 847.008 342.52 828.001 337.569C825.994 336.924 823.991 336.264 822.001 335.569C822.001 334.909 822.001 334.249 822.001 333.569C820.763 333.291 820.763 333.291 819.501 333.007C812.664 330.199 807.575 324.973 804.001 318.569C804.001 317.909 804.001 317.249 804.001 316.569C803.341 316.569 802.681 316.569 802.001 316.569C798.082 307.054 796.525 298.388 796.563 288.069C796.566 287.055 796.568 286.042 796.571 284.997C796.824 272.237 800.48 260.758 809.626 251.507C814.31 247.094 817.468 244.312 824.001 243.569C824.001 242.909 824.001 242.249 824.001 241.569C825.352 241.082 826.707 240.605 828.063 240.132C828.817 239.865 829.571 239.598 830.348 239.323C847.893 234.336 866.614 237.546 883.001 244.569Z" fill="#232122"/>
<path d="M551 211.57C557.93 211.57 564.86 211.57 572 211.57C572.004 214.946 572.008 218.322 572.012 221.801C572.03 232.969 572.074 244.136 572.132 255.304C572.167 262.074 572.192 268.843 572.196 275.613C572.199 282.149 572.228 288.684 572.273 295.22C572.286 297.71 572.291 300.201 572.286 302.692C572.281 306.187 572.307 309.681 572.341 313.176C572.328 314.712 572.328 314.712 572.314 316.279C572.422 323.069 573.825 328.117 578 333.57C580.634 335.489 580.634 335.489 583 336.57C583 337.23 583 337.89 583 338.57C583.534 338.729 584.067 338.887 584.617 339.051C590.749 340.971 596.325 343.573 602 346.57C602 347.23 602 347.89 602 348.57C602.536 348.818 603.072 349.065 603.625 349.32C606.564 350.867 609.258 352.7 612 354.57C610.242 355.219 610.242 355.219 608 355.57C606.07 354.609 606.07 354.609 604.125 353.195C600.75 350.914 598.135 349.88 594 349.57C594 350.23 594 350.89 594 351.57C594.583 351.819 595.165 352.068 595.766 352.324C598.315 353.746 599.836 355.312 601.75 357.508C602.364 358.197 602.977 358.887 603.609 359.598C605 361.57 605 361.57 605 364.57C602.75 364.445 602.75 364.445 600 363.57C599.125 362.19 598.256 360.806 597.426 359.398C593.278 354.08 586.739 349.414 580 348.57C581.98 351.54 581.98 351.54 584 354.57C579.682 354.062 575.967 353.373 572 351.57C572.99 354.54 573.98 357.51 575 360.57C571.557 360.157 568.441 359.737 565.188 358.508C554.852 355.468 544.08 358.969 534.727 363.727C532.429 364.849 530.52 364.71 528 364.57C531.115 358.341 545.446 354.924 552 352.57C553.328 352.217 554.66 351.877 556 351.57C556 350.58 556 349.59 556 348.57C541.134 342.311 524.919 351.066 511.09 356.627C506.309 358.577 501.599 360.637 496.926 362.834C495 363.57 495 363.57 492 363.57C492 362.91 492 362.25 492 361.57C503.354 355.284 514.66 349.588 526.893 345.209C538.973 341.112 538.973 341.112 548 332.57C550.011 326.068 550.305 320.066 550.319 313.289C550.334 311.634 550.334 311.634 550.349 309.946C550.38 306.321 550.397 302.696 550.414 299.07C550.433 296.548 550.452 294.026 550.473 291.504C550.519 285.558 550.556 279.612 550.589 273.666C550.628 266.892 550.677 260.118 550.727 253.344C550.831 239.42 550.918 225.495 551 211.57Z" fill="#216432"/>
<path d="M446 161.57C452.93 161.57 459.86 161.57 467 161.57C467 219.65 467 277.73 467 337.57C460.07 337.57 453.14 337.57 446 337.57C446 279.49 446 221.41 446 161.57Z" fill="#201E1F"/>
<path d="M542 79.5709C544.172 82.0982 544.172 82.0982 546 84.5709C547.818 86.2075 549.697 87.7159 551.609 89.2388C552.298 89.8982 552.298 89.8982 553 90.5709C553 91.2309 553 91.8909 553 92.5709C554.485 93.0659 554.485 93.0659 556 93.5709C565.304 105.565 566.627 119.881 566 134.571C565.505 136.056 565.505 136.056 565 137.571C564.01 137.571 563.02 137.571 562 137.571C561.505 134.106 561.505 134.106 561 130.571C560.34 130.571 559.68 130.571 559 130.571C558.567 129.333 558.134 128.096 557.688 126.821C556.504 123.63 555.149 121.231 553 118.571C553 117.911 553 117.251 553 116.571C552.34 116.571 551.68 116.571 551 116.571C550.443 115.519 549.886 114.467 549.312 113.383C547.299 109.871 544.978 107.341 542 104.571C540.725 103.304 539.454 102.033 538.188 100.758C537.281 99.8515 537.281 99.8515 536.355 98.9263C535.908 98.479 535.461 98.0317 535 97.5709C536.698 100.117 538.512 102.465 540.427 104.847C549.765 116.577 556.742 129.245 556 144.571C541.779 145.11 533.188 142.838 522.465 133.321C515.599 126.705 515.599 126.705 515 122.571C514.34 122.571 513.68 122.571 513 122.571C504.983 106.712 504.983 106.712 501.875 99.4693C500.943 97.4466 499.878 95.5529 498.75 93.6334C497 90.5709 497 90.5709 497 88.5709C496.34 88.5709 495.68 88.5709 495 88.5709C490.388 84.4204 490.388 84.4204 489 81.3834C487.538 78.7337 485.835 78.5158 483 77.5709C481.725 77.0392 480.454 76.4972 479.188 75.9459C477.61 75.2653 477.61 75.2653 476 74.5709C476 73.9109 476 73.2509 476 72.5709C499.184 68.4274 521.255 66.4714 542 79.5709Z" fill="#5FBA57"/>
<path d="M499 211.57C505.93 211.57 512.86 211.57 520 211.57C520 253.15 520 294.73 520 337.57C513.07 337.57 506.14 337.57 499 337.57C499 295.99 499 254.41 499 211.57Z" fill="#222021"/>
<path d="M368.556 207.961C380.984 208.086 394.192 210.372 404.001 218.566C416.183 231.602 415.422 246.072 415.294 262.859C415.288 265.018 415.284 267.178 415.281 269.337C415.27 274.987 415.24 280.637 415.207 286.287C415.176 292.066 415.163 297.844 415.147 303.623C415.115 314.938 415.063 326.252 415.001 337.566H394.001L393.001 325.566L388.001 327.566V329.566C386.2 330.898 386.2 330.898 383.688 332.379L381.263 333.836L378.001 335.566C377.218 335.992 376.435 336.418 375.628 336.856C368.5 340.457 362.501 341.399 354.563 341.254C352.916 341.236 352.915 341.235 351.234 341.217C342.853 340.952 336.745 339.846 330.001 334.566L327.989 333.102C321.431 327.511 316.053 317.074 315.001 308.566C314.413 295.599 314.831 283.001 323.685 272.586C342.212 255.137 370.208 255.288 394.001 254.566C392.963 243.378 392.963 243.378 388.001 233.566L386.001 232.566V230.566C378.465 228.963 371.264 228.21 363.563 228.254C362.556 228.257 361.548 228.261 360.51 228.265C353.281 228.37 346.874 229.265 340.001 231.566C338.004 232.117 336.004 232.659 334.001 233.191L331.376 233.918C329.259 234.496 327.13 235.034 325.001 235.566V213.566C338.423 210.034 350.76 208.043 364.563 208.004L368.556 207.961ZM394.001 271.571C380.224 271.466 363.534 272.216 350.88 277.997C345.522 280.927 339.524 284.147 337.396 290.243C336.043 298.226 335.671 306.494 340.192 313.388C344.118 318.387 347.72 320.56 354.001 321.571C366.304 322.796 376.422 320.539 386.306 312.978L388.001 311.571C391.07 309.492 391.071 309.493 392.686 308.139C394.596 305.865 394.683 303.565 394.681 300.669C394.649 299.907 394.618 299.167 394.587 298.427C394.56 296.03 394.527 293.636 394.454 291.24C394.402 289.577 394.361 287.914 394.331 286.25C394.259 281.356 394.15 276.464 394.001 271.571Z" fill="#232223"/>
<path d="M1093 337.57H1062V328.57L1059.22 330.688C1057.98 331.607 1056.74 332.527 1055.5 333.445L1053.68 334.84C1045.23 341.042 1035.98 341.437 1025.77 340.328C1017.86 338.781 1011.83 334.14 1007.19 327.695C1006.1 326.003 1005.04 324.295 1004 322.57L1002.79 320.641C994.455 305.992 994.913 284.57 998.965 268.645C1002.71 257.531 1009.62 247.744 1019.75 241.641C1026.2 238.575 1031.64 237.039 1038.81 237.133C1039.6 237.137 1040.38 237.143 1041.19 237.147C1048.97 237.345 1055.49 239.234 1062 243.57V202.57H1093V337.57ZM1049.31 260.379C1046.83 260.396 1044.44 260.509 1041.98 260.828C1035.95 263.078 1032.85 267.983 1030.16 273.523C1026.88 282.894 1027.22 297.266 1030.76 306.566C1033 311.411 1034.91 314.383 1040 316.566C1049.21 317.963 1049.21 317.963 1062 311.566V262.566C1055 260.566 1055 260.566 1052.05 260.336L1049.31 260.379Z" fill="#242222"/>
<path d="M636 208.566C636 209.226 636 209.886 636 210.566C637.32 210.566 638.64 210.566 640 210.566C640 211.226 640 211.886 640 212.566C639.443 212.713 638.886 212.86 638.312 213.012C637.168 213.348 637.168 213.348 636 213.691C635.257 213.9 634.515 214.109 633.75 214.324C626.007 217.822 620.849 223.688 615.687 230.254C614.484 231.759 613.28 233.263 612.074 234.766C611.554 235.424 611.034 236.082 610.499 236.761C609.07 238.481 607.679 240.087 606 241.566C605.34 241.566 604.68 241.566 604 241.566C604 242.226 604 242.886 604 243.566C602.753 244.217 601.502 244.862 600.25 245.504C599.206 246.043 599.206 246.043 598.141 246.594C594.374 248.305 591.123 248.704 587 248.691C585.731 248.695 585.731 248.695 584.437 248.699C582.153 248.575 580.19 248.205 578 247.566C578.469 238.654 584.616 231.31 590.832 225.395C594.334 222.441 598.095 219.953 602 217.566C596.312 220.046 591.796 223.67 587 227.566C586.381 228.06 585.762 228.554 585.125 229.063C582.12 231.437 582.12 231.437 580 234.566C579.34 234.566 578.68 234.566 578 234.566C577.598 235.742 577.598 235.742 577.187 236.941C576 239.566 576 239.566 573 241.566C572.47 231.668 575.684 224.205 582 216.566C598.605 200.109 615.412 202.479 636 208.566Z" fill="#246534"/>
<path d="M613.999 66.57C613.999 67.23 613.999 67.89 613.999 68.57C613.112 69.1269 612.225 69.6838 611.312 70.2575C605.445 74.0535 603.098 78.8798 601.187 85.3825C598.541 93.955 593.193 100.305 585.999 105.57C583.248 106.487 581.64 106.679 578.812 106.633C577.554 106.612 576.295 106.591 574.999 106.57C575.033 97.8399 577.357 91.9096 581.999 84.57C581.339 84.57 580.679 84.57 579.999 84.57C579.721 85.1411 579.442 85.7121 579.155 86.3005C578.011 88.546 576.768 90.7053 575.499 92.8825C573.335 96.7381 572.004 100.275 570.999 104.57C570.009 104.24 569.019 103.91 567.999 103.57C567.629 96.2348 568.154 90.3566 570.999 83.57C571.37 82.5594 571.742 81.5488 572.124 80.5075C576.281 73.9943 582.542 68.811 589.835 66.1833C596.586 64.8747 607.69 63.4153 613.999 66.57Z" fill="#A6CD54"/>
<path d="M898.999 242.568C916.315 231.024 956.094 234.134 972.015 246.795L973.999 248.568L975.608 249.967C982.658 257.141 982.374 268.41 982.339 277.792C982.324 279.325 982.308 280.859 982.292 282.393C982.286 283.991 982.282 285.59 982.279 287.188C982.268 291.359 982.238 295.53 982.205 299.7C982.169 304.724 982.155 309.748 982.138 314.771C982.109 322.371 982.051 329.969 981.999 337.568H950.999V328.568L947.624 331.068C944.249 333.568 944.249 333.568 941.999 333.568V335.568C931.919 340.914 922.113 342.534 910.968 339.834C905.813 337.94 901.961 335.337 897.999 331.568L896.507 330.248C890.495 323.551 889.27 314.461 889.659 305.822C890.68 296.048 894.659 290.147 901.999 283.568C914.885 273.784 935.53 273.918 950.999 273.568C950.483 267.401 950.483 267.401 946.999 262.568C931.83 256.867 916.641 259.767 901.999 265.568H898.999C898.912 261.777 898.859 257.986 898.812 254.193L898.735 250.92L898.706 247.795C898.682 246.366 898.682 246.365 898.658 244.907C898.771 244.136 898.883 243.363 898.999 242.568ZM951 292.568C941.596 292.252 928.948 292.142 922.062 299.693C920.237 304.633 920.341 309.593 922 314.568H924V316.568C926.727 317.832 928.93 318.562 931.938 318.834L935 318.818C940.518 318.847 943.969 317.648 948.793 315.084C951.563 311.927 951.563 311.927 951.439 305.107L951.312 302.318C951.234 299.067 951.145 295.818 951 292.568Z" fill="#242223"/>
<path d="M1162.98 237.211C1169.83 237.207 1175.57 238.257 1182 240.572L1185.63 241.76L1188 242.572V244.572L1189.69 245.26C1197.53 249.712 1202.01 257.46 1204.42 265.85C1206.51 275.67 1206 284.268 1206 294.572H1139C1141.11 306.004 1141.11 306.004 1147.9 312.971C1154.51 316.837 1161.09 317.07 1168.56 317.135C1169.53 317.149 1170.5 317.164 1171.5 317.179C1178.43 317.082 1183.77 315.533 1190 312.572L1193.28 311.088C1195.07 310.235 1196.86 309.381 1198.65 308.525C1201 307.572 1201 307.572 1204 307.572V332.572C1182.63 341.12 1158.79 344.74 1136.62 336.283C1124.96 330.826 1117.09 323.012 1111.93 311.111C1106.9 296.86 1106.78 277.144 1113.25 263.385C1120.14 250.71 1129.71 242.803 1143.57 238.451C1148.97 237.18 1154.36 237.243 1159.88 237.26L1162.98 237.211ZM1167 257.569C1160.32 255.344 1152.86 255.599 1146.72 259.179C1140.69 264.045 1139.95 268.949 1139 276.569H1176C1176 268.569 1176 268.569 1175.05 266.073L1173.75 264.132C1172.23 261.728 1171.55 260.754 1168.83 259.847L1167 259.569V257.569Z" fill="#232122"/>
<path d="M497 167.567C500.979 167.54 504.958 167.52 508.938 167.504C510.074 167.496 511.21 167.487 512.381 167.479C513.46 167.476 514.54 167.472 515.652 167.469C517.153 167.461 517.153 167.461 518.683 167.453C521 167.567 521 167.567 522 168.567C522.087 170.201 522.107 171.84 522.098 173.477C522.095 174.368 522.093 175.258 522.09 176.176C522.081 177.316 522.072 178.455 522.062 179.629C522.042 183.239 522.021 186.848 522 190.567C513.75 190.567 505.5 190.567 497 190.567C497 182.977 497 175.387 497 167.567Z" fill="#211F1E"/>
<path d="M755.812 225.945C756.412 227.734 757.011 229.523 757.628 231.365C762.368 245.545 762.369 245.545 764.434 252.635C766.479 259.62 769.029 266.417 771.667 273.196C773.229 277.278 774.579 281.392 775.848 285.574C778 292.664 780.367 299.67 782.782 306.674C783.503 308.765 784.218 310.858 784.934 312.951C787.215 319.595 789.55 326.184 792.318 332.646C793 334.57 793 334.57 793 337.57H759L755.5 327.383C755.135 326.332 754.769 325.281 754.393 324.198C753.966 322.938 753.966 322.938 753.531 321.652C753.238 320.799 752.945 319.945 752.643 319.065C752 316.57 752 316.57 752 311.57H710L708 320.57C707.591 322.109 707.167 323.643 706.711 325.168C706.513 325.836 706.315 326.503 706.111 327.191C705.747 328.4 705.747 328.4 705.375 329.633L703 337.57H670C673.478 324.817 673.478 324.817 675 319.82L675.938 316.711C677 313.57 677 313.57 678.449 310.199C680.128 306.272 681.491 302.316 682.812 298.258C683.337 296.664 683.862 295.07 684.387 293.477C684.653 292.666 684.919 291.855 685.193 291.02C685.982 288.627 686.779 286.239 687.582 283.852C690.18 276.119 692.722 268.384 695.043 260.562C695.973 257.654 697.038 254.816 698.123 251.963C700.417 245.704 702.422 239.338 704.508 233.008C707.221 224.812 710.094 216.707 713 208.57H750L755.812 225.945ZM730 246.57C729.347 248.575 728.678 250.574 728 252.57C726.627 255.746 725.706 258.755 725 262.133C724.711 263.621 724.378 265.102 724 266.57C722.785 268.885 722.004 270.543 721.586 273.148L721.375 275.82L721.148 278.523L721 280.57H719L718 287.57H743C743 283.662 742.389 280.827 741.369 277.113L740.688 274.695C739.513 270.344 738.347 266.282 736.367 262.219C734.808 259.536 734.808 259.536 734.438 256.07C734.012 252.667 733.175 249.781 732 246.57H730Z" fill="#232122"/>
<path d="M534 51.5668C551.066 50.614 551.066 50.614 557.938 54.6879C562.608 58.9426 565.483 64.888 566.359 71.1254C566.375 73.3168 566.375 73.3168 566 76.5668C565.34 76.8968 564.68 77.2268 564 77.5668C563.674 76.8798 563.348 76.1927 563.012 75.4848C562.356 74.1332 562.356 74.1332 561.688 72.7543C561.258 71.861 560.829 70.9677 560.387 70.0473C559.118 67.7775 557.934 66.2743 556 64.5668C556.433 65.3867 556.866 66.2065 557.312 67.0512C557.869 68.1289 558.426 69.2065 559 70.3168C559.557 71.3842 560.114 72.4515 560.688 73.5512C562 76.5668 562 76.5668 562 80.5668C556.21 80.3146 552.118 80.0375 548 75.5668C545.409 71.6413 543.699 67.841 542.062 63.4418C540.37 59.0223 538.553 56.6393 535 53.5668C534.67 52.9068 534.34 52.2468 534 51.5668Z" fill="#80C170"/>
<path d="M500 155.57C504.689 156.127 508.199 157.452 512.375 159.633C513.435 160.181 514.494 160.729 515.586 161.293C516.383 161.714 517.179 162.136 518 162.57C518 163.23 518 163.89 518 164.57C518.722 164.811 519.444 165.052 520.188 165.301C523.389 166.746 525.432 168.495 528 170.883C528.864 171.685 529.727 172.486 530.617 173.312C531.404 174.058 532.19 174.803 533 175.57C533.58 176.109 534.16 176.648 534.758 177.203C535.885 178.279 536.952 179.417 538 180.57C538 181.23 538 181.89 538 182.57C539.32 182.9 540.64 183.23 542 183.57C542 184.23 542 184.89 542 185.57C542.99 185.9 543.98 186.23 545 186.57C546.352 188.531 546.352 188.531 547.625 190.945C548.05 191.737 548.476 192.528 548.914 193.344C550 195.57 550 195.57 551 198.57C551.66 198.57 552.32 198.57 553 198.57C553.268 199.292 553.536 200.014 553.812 200.758C554.94 203.617 554.94 203.617 556.625 206.258C558 208.57 558 208.57 558 210.57C556.886 210.715 555.773 210.859 554.625 211.008C551.179 211.354 551.179 211.354 549 212.57C548.853 211.953 548.706 211.335 548.555 210.699C546.991 204.796 544.859 200.377 541.207 195.48C540 193.57 540 193.57 540 190.57C539.34 190.57 538.68 190.57 538 190.57C536.871 188.722 535.745 186.871 534.641 185.008C532.083 181.208 528.94 177.988 525.793 174.672C524 172.57 524 172.57 524 170.57C523.34 170.57 522.68 170.57 522 170.57C521.67 169.91 521.34 169.25 521 168.57C519.356 167.849 517.689 167.177 516 166.57C516 165.91 516 165.25 516 164.57C515.295 164.305 514.59 164.039 513.863 163.766C510.844 162.505 508.048 161.031 505.188 159.445C504.212 158.906 503.236 158.368 502.23 157.812C501.494 157.403 500.758 156.993 500 156.57C500 156.24 500 155.91 500 155.57Z" fill="#F5FBEA"/>
<path d="M520 87.5703C525.679 88.9899 529.532 91.964 534 95.5703C533.34 96.2303 532.68 96.8903 532 97.5703C531.319 96.9928 530.639 96.4153 529.938 95.8203C526.741 93.372 523.525 91.5058 520 89.5703C520 88.9103 520 88.2503 520 87.5703Z" fill="#8FDA87"/>
<path d="M390 235.57C392.475 236.065 392.475 236.065 395 236.57C394.67 239.21 394.34 241.85 394 244.57C392.477 241.633 391.199 238.653 390 235.57Z" fill="#5C5C5C"/>
</svg>
